<svg xmlns="http://www.w3.org/2000/svg" width="145" height="102" viewBox="0 0 145 102">
  <g id="Group_2474" data-name="Group 2474" transform="translate(-782 -2652)">
    <g id="Union_3" data-name="Union 3" transform="translate(-21240 2304)" fill="#fff" opacity="0.8">
      <path d="M 22159 449.25 L 22030 449.25 C 22026.001953125 449.25 22022.75 445.9976501464844 22022.75 442 L 22022.75 356 C 22022.75 352.0023498535156 22026.001953125 348.75 22030 348.75 L 22159 348.75 C 22162.998046875 348.75 22166.25 352.0023498535156 22166.25 356 L 22166.25 442 C 22166.25 445.9976501464844 22162.998046875 449.25 22159 449.25 Z" stroke="none"/>
      <path d="M 22030 349.5 C 22026.416015625 349.5 22023.5 352.4158935546875 22023.5 356 L 22023.5 442 C 22023.5 445.5841064453125 22026.416015625 448.5 22030 448.5 L 22159 448.5 C 22162.583984375 448.5 22165.5 445.5841064453125 22165.5 442 L 22165.5 356 C 22165.5 352.4158935546875 22162.583984375 349.5 22159 349.5 L 22030 349.5 M 22030 348 L 22159 348 C 22163.41796875 348 22167 351.5817260742188 22167 356 L 22167 442 C 22167 446.4182739257812 22163.41796875 450 22159 450 L 22030 450 C 22025.58203125 450 22022 446.4182739257812 22022 442 L 22022 356 C 22022 351.5817260742188 22025.58203125 348 22030 348 Z" stroke="none" fill="#a97106"/>
    </g>
    <text id="鳥取_島根_岡山_広島_山口" data-name="鳥取 | 島根 | 岡山 広島 | 山口" transform="translate(793 2696)" fill="#6b6d70" font-size="14" font-family="NotoSansJP-Regular, Noto Sans JP" letter-spacing="0.05em"><tspan x="-55" y="16">鳥取 | 島根 | 岡山 </tspan><tspan x="-35" y="36">広島 | 山口</tspan></text>
    <text id="中国" transform="translate(789 2662)" fill="#6b6d70" font-size="20" font-family="NotoSansJP-Bold, Noto Sans JP" font-weight="700" letter-spacing="0.05em"><tspan x="-20" y="23">中国</tspan></text>
  </g>
</svg>
