<svg id="Group_91" data-name="Group 91" xmlns="http://www.w3.org/2000/svg" width="34.054" height="33.997" viewBox="0 0 34.054 33.997">
  <path id="Path_196" data-name="Path 196" d="M454.039-9.54a17.045,17.045,0,0,1,17.017-16.935A17.06,17.06,0,0,1,488.089-9.106,17.009,17.009,0,0,1,471.168,7.522,17.057,17.057,0,0,1,454.039-9.54Zm28.172.1h-.056c0-1.189.033-2.38-.011-3.568a16.456,16.456,0,0,0-.267-2.766,5.527,5.527,0,0,0-3.948-4.354,8.283,8.283,0,0,0-2.526-.38c-2.861-.016-5.722-.025-8.583,0a9.877,9.877,0,0,0-2.152.253,5.492,5.492,0,0,0-4.309,4.064,9.809,9.809,0,0,0-.331,2.364c-.059,2.192-.072,4.385-.06,6.578a31.917,31.917,0,0,0,.168,3.393,5.758,5.758,0,0,0,4.915,5.244,10.5,10.5,0,0,0,1.716.172c2.137.035,4.274.071,6.41.047a33.14,33.14,0,0,0,3.944-.232A5.464,5.464,0,0,0,480.89-.886a6.468,6.468,0,0,0,1.2-3.653C482.165-6.171,482.173-7.808,482.211-9.442Z" transform="translate(-454.039 26.475)"/>
  <path id="Path_197" data-name="Path 197" d="M501.778,10.2c-.038,1.635-.046,3.271-.122,4.9a6.467,6.467,0,0,1-1.2,3.653,5.464,5.464,0,0,1-3.769,2.259,33.141,33.141,0,0,1-3.944.232c-2.136.024-4.274-.012-6.41-.047a10.5,10.5,0,0,1-1.716-.172,5.758,5.758,0,0,1-4.915-5.244,31.9,31.9,0,0,1-.168-3.393c-.011-2.192,0-4.386.06-6.578a9.809,9.809,0,0,1,.331-2.364A5.492,5.492,0,0,1,484.234-.61a9.877,9.877,0,0,1,2.152-.253c2.861-.027,5.722-.018,8.583,0a8.283,8.283,0,0,1,2.526.38,5.527,5.527,0,0,1,3.948,4.354,16.456,16.456,0,0,1,.267,2.766c.044,1.188.011,2.378.011,3.568Zm-11.12-9.16v.04c-.855,0-1.711-.024-2.565.006a26.608,26.608,0,0,0-3.056.195,3.724,3.724,0,0,0-3.273,3.131,5.891,5.891,0,0,0-.143,1.16c-.022,2.844-.041,5.687-.025,8.531a9.272,9.272,0,0,0,.238,2.042,3.486,3.486,0,0,0,2.525,2.721,7.385,7.385,0,0,0,1.918.3c2.75.043,5.5.05,8.252.039A9.813,9.813,0,0,0,496.518,19a3.506,3.506,0,0,0,2.8-2.441,6.877,6.877,0,0,0,.341-1.909c.054-2.564.064-5.129.059-7.694a16.288,16.288,0,0,0-.171-2.333,3.727,3.727,0,0,0-1.86-2.836,5.033,5.033,0,0,0-2.4-.628Q492.97,1.1,490.658,1.044Z" transform="translate(-473.606 6.828)" fill="#fff"/>
  <path id="Path_198" data-name="Path 198" d="M497.453,7.4q2.313.058,4.626.116a5.033,5.033,0,0,1,2.4.628,3.727,3.727,0,0,1,1.86,2.836,16.292,16.292,0,0,1,.171,2.333c.005,2.565-.005,5.13-.059,7.694a6.878,6.878,0,0,1-.341,1.909,3.506,3.506,0,0,1-2.8,2.441,9.813,9.813,0,0,1-1.991.211c-2.751.012-5.5,0-8.252-.039a7.384,7.384,0,0,1-1.918-.3,3.486,3.486,0,0,1-2.525-2.721,9.276,9.276,0,0,1-.238-2.042c-.016-2.844,0-5.688.025-8.531a5.9,5.9,0,0,1,.143-1.16,3.725,3.725,0,0,1,3.273-3.131,26.609,26.609,0,0,1,3.056-.195c.854-.03,1.71-.006,2.565-.006Zm5.69,9.13a5.708,5.708,0,1,0-5.708,5.7A5.685,5.685,0,0,0,503.143,16.53Zm1.543-5.9a1.282,1.282,0,0,0-1.318-1.343,1.31,1.31,0,0,0-1.344,1.273,1.323,1.323,0,0,0,1.36,1.379A1.28,1.28,0,0,0,504.686,10.633Z" transform="translate(-480.402 0.472)"/>
  <path id="Path_199" data-name="Path 199" d="M514.187,27.842a5.708,5.708,0,1,1-5.763-5.705A5.672,5.672,0,0,1,514.187,27.842Zm-2.022.008a3.685,3.685,0,0,0-7.37-.025,3.685,3.685,0,1,0,7.37.025Z" transform="translate(-491.445 -10.84)" fill="#fff"/>
  <path id="Path_200" data-name="Path 200" d="M549.74,16.878a1.28,1.28,0,0,1-1.3,1.308,1.323,1.323,0,0,1-1.36-1.379,1.31,1.31,0,0,1,1.344-1.273A1.282,1.282,0,0,1,549.74,16.878Z" transform="translate(-525.455 -5.772)" fill="#fff"/>
  <path id="Path_201" data-name="Path 201" d="M518.85,34.528a3.685,3.685,0,1,1-3.67-3.691A3.7,3.7,0,0,1,518.85,34.528Z" transform="translate(-498.131 -17.517)"/>
</svg>
