<svg id="Group_2006" data-name="Group 2006" xmlns="http://www.w3.org/2000/svg" xmlns:xlink="http://www.w3.org/1999/xlink" width="38" height="31.882" viewBox="0 0 38 31.882">
  <defs>
    <clipPath id="clip-path">
      <rect id="Rectangle_1081" data-name="Rectangle 1081" width="38" height="31.882" fill="none" stroke="#7791be" stroke-width="1.5"/>
    </clipPath>
  </defs>
  <g id="Group_2005" data-name="Group 2005" clip-path="url(#clip-path)">
    <path id="Path_2888" data-name="Path 2888" d="M21.973,8.294a4.873,4.873,0,0,1-4.782,4.959,4.873,4.873,0,0,1-4.782-4.959V5.459A4.873,4.873,0,0,1,17.19.5a4.873,4.873,0,0,1,4.782,4.959Z" transform="translate(7.372 0.297)" fill="none" stroke="#7791be" stroke-linecap="round" stroke-linejoin="round" stroke-width="1.5"/>
    <circle id="Ellipse_58" data-name="Ellipse 58" cx="3.985" cy="3.985" r="3.985" transform="translate(7.824 1.594)" fill="none" stroke="#7791be" stroke-linecap="round" stroke-linejoin="round" stroke-width="1.5"/>
    <path id="Path_2889" data-name="Path 2889" d="M15.524,12.319a9.562,9.562,0,0,0-15,5.914,1.577,1.577,0,0,0,1.578,1.832H9.918" transform="translate(0.297 6.238)" fill="none" stroke="#7791be" stroke-linecap="round" stroke-linejoin="round" stroke-width="1.5"/>
    <path id="Path_2890" data-name="Path 2890" d="M20.119,11.5h0A12.756,12.756,0,0,0,7.494,22.44a1.6,1.6,0,0,0,1.593,1.812H31.152a1.6,1.6,0,0,0,1.592-1.812A12.756,12.756,0,0,0,20.119,11.5Z" transform="translate(4.443 6.832)" fill="none" stroke="#7791be" stroke-linecap="round" stroke-linejoin="round" stroke-width="1.5"/>
  </g>
</svg>
