<svg id="Group_1998" data-name="Group 1998" xmlns="http://www.w3.org/2000/svg" xmlns:xlink="http://www.w3.org/1999/xlink" width="44" height="44" viewBox="0 0 44 44">
  <defs>
    <clipPath id="clip-path">
      <rect id="Rectangle_1077" data-name="Rectangle 1077" width="44" height="44" fill="none" stroke="#7791be" stroke-width="1.5"/>
    </clipPath>
  </defs>
  <g id="Group_1997" data-name="Group 1997" clip-path="url(#clip-path)">
    <path id="Path_2873" data-name="Path 2873" d="M7.778,21.236H4.139A3.638,3.638,0,0,1,.5,17.6V12.139A3.638,3.638,0,0,1,4.139,8.5H7.778Z" transform="translate(0.41 6.966)" fill="none" stroke="#7791be" stroke-linecap="round" stroke-linejoin="round" stroke-width="1.5"/>
    <path id="Path_2874" data-name="Path 2874" d="M19.5,21.236h3.639A3.638,3.638,0,0,0,26.778,17.6V12.139A3.638,3.638,0,0,0,23.139,8.5H19.5Z" transform="translate(15.98 6.966)" fill="none" stroke="#7791be" stroke-linecap="round" stroke-linejoin="round" stroke-width="1.5"/>
    <path id="Path_2875" data-name="Path 2875" d="M26.236,15.5v3.639c0,4.019-3.639,9.1-9.1,9.1H13.5" transform="translate(11.063 12.702)" fill="none" stroke="#7791be" stroke-linecap="round" stroke-linejoin="round" stroke-width="1.5"/>
    <path id="Path_2876" data-name="Path 2876" d="M14.139,25.139H12.319a1.819,1.819,0,1,1,0-3.639h1.819a1.819,1.819,0,1,1,0,3.639Z" transform="translate(8.605 17.619)" fill="none" stroke="#7791be" stroke-linecap="round" stroke-linejoin="round" stroke-width="1.5"/>
    <path id="Path_2877" data-name="Path 2877" d="M4.5,15.056V13.236A12.736,12.736,0,0,1,17.236.5h1.819A12.736,12.736,0,0,1,31.792,13.236v1.819" transform="translate(3.688 0.41)" fill="none" stroke="#7791be" stroke-linecap="round" stroke-linejoin="round" stroke-width="1.5"/>
  </g>
</svg>
