<svg id="Group_2485" data-name="Group 2485" xmlns="http://www.w3.org/2000/svg" xmlns:xlink="http://www.w3.org/1999/xlink" width="80" height="80" viewBox="0 0 80 80">
  <defs>
    <clipPath id="clip-path">
      <rect id="Rectangle_1134" data-name="Rectangle 1134" width="56.463" height="51.492" fill="none"/>
    </clipPath>
  </defs>
  <circle id="Ellipse_71" data-name="Ellipse 71" cx="40" cy="40" r="40" fill="#f2f2f2"/>
  <g id="Group_2134" data-name="Group 2134" transform="translate(11.769 9.475)">
    <g id="Mask_Group_2131" data-name="Mask Group 2131" clip-path="url(#clip-path)">
      <path id="Path_3053" data-name="Path 3053" d="M1.769,5.346H54.691A1.776,1.776,0,0,1,56.46,7.115V41.878a1.779,1.779,0,0,1-1.769,1.769H1.769A1.777,1.777,0,0,1,0,41.878V7.115A1.774,1.774,0,0,1,1.769,5.346" transform="translate(0 7.846)" fill="#fff"/>
      <rect id="Rectangle_1128" data-name="Rectangle 1128" width="18.536" height="22.134" transform="translate(4.788 22.117)" fill="#fff"/>
      <path id="Path_3054" data-name="Path 3054" d="M18.5,22.925H2.444v-.713a8.026,8.026,0,1,1,16.051,0Z" transform="translate(3.588 20.819)" fill="#f26757"/>
      <path id="Path_3055" data-name="Path 3055" d="M8.256,10.494A4.306,4.306,0,1,1,3.95,14.8a4.306,4.306,0,0,1,4.306-4.306" transform="translate(5.798 15.403)" fill="#ffceaa"/>
      <path id="Path_3056" data-name="Path 3056" d="M3.957,15.034c0-.077-.007-.155-.007-.234a4.3,4.3,0,0,1,6.8-3.512,14.37,14.37,0,0,1-6.789,3.746" transform="translate(5.798 15.401)" fill="#6e4d48"/>
      <path id="Path_3057" data-name="Path 3057" d="M5.178,10.686a4.31,4.31,0,0,1,5.572,3.8,14.471,14.471,0,0,1-5.572-3.8" transform="translate(7.601 15.403)" fill="#6e4d48"/>
      <path id="Path_3058" data-name="Path 3058" d="M2.511,8.573h19.5V32.625H1.551V8.573Zm17.576,1.92H3.469V30.707H20.087Z" transform="translate(2.277 12.583)" fill="#d7dbde"/>
      <rect id="Rectangle_1129" data-name="Rectangle 1129" width="18.356" height="3.783" transform="translate(28.511 21.157)" fill="#afb7ba"/>
      <rect id="Rectangle_1130" data-name="Rectangle 1130" width="23.966" height="2.806" transform="translate(28.511 30.145)" fill="#bdc3c7"/>
      <rect id="Rectangle_1131" data-name="Rectangle 1131" width="23.966" height="2.806" transform="translate(28.511 35.328)" fill="#bdc3c7"/>
      <rect id="Rectangle_1132" data-name="Rectangle 1132" width="23.966" height="2.806" transform="translate(28.511 40.508)" fill="#bdc3c7"/>
      <rect id="Rectangle_1133" data-name="Rectangle 1133" width="22.159" height="7.818" transform="translate(17.152 9.879)" fill="#333"/>
      <path id="Path_3059" data-name="Path 3059" d="M18.028,0h0a5.953,5.953,0,0,1,4.21,1.752l0,0a5.944,5.944,0,0,1,1.75,4.21v.679h3.366a1.759,1.759,0,0,1,1.752,1.752v2.764H6.95V8.391A1.755,1.755,0,0,1,8.7,6.639h3.369V5.96A5.974,5.974,0,0,1,18.028,0m3.223,6.639V5.96A3.215,3.215,0,0,0,20.3,3.685v0a3.224,3.224,0,0,0-5.5,2.28v.679Z" transform="translate(10.202 -0.001)" fill="#4c4c4c"/>
    </g>
  </g>
</svg>
