<svg xmlns="http://www.w3.org/2000/svg" width="136" height="120" viewBox="0 0 136 120">
  <g id="Group_2476" data-name="Group 2476" transform="translate(-782 -2652)">
    <g id="Union_3" data-name="Union 3" transform="translate(-21240 2304)" fill="#fff" opacity="0.8">
      <path d="M 22150 467.25 L 22030 467.25 C 22026.001953125 467.25 22022.75 463.9976501464844 22022.75 460 L 22022.75 356 C 22022.75 352.0023498535156 22026.001953125 348.75 22030 348.75 L 22150 348.75 C 22153.998046875 348.75 22157.25 352.0023498535156 22157.25 356 L 22157.25 460 C 22157.25 463.9976501464844 22153.998046875 467.25 22150 467.25 Z" stroke="none"/>
      <path d="M 22030 349.5 C 22026.416015625 349.5 22023.5 352.4158935546875 22023.5 356 L 22023.5 460 C 22023.5 463.5841064453125 22026.416015625 466.5 22030 466.5 L 22150 466.5 C 22153.583984375 466.5 22156.5 463.5841064453125 22156.5 460 L 22156.5 356 C 22156.5 352.4158935546875 22153.583984375 349.5 22150 349.5 L 22030 349.5 M 22030 348 L 22150 348 C 22154.41796875 348 22158 351.5817260742188 22158 356 L 22158 460 C 22158 464.4182739257812 22154.41796875 468 22150 468 L 22030 468 C 22025.58203125 468 22022 464.4182739257812 22022 460 L 22022 356 C 22022 351.5817260742188 22025.58203125 348 22030 348 Z" stroke="none" fill="#a97106"/>
    </g>
    <text id="福岡_佐賀_熊本_大分_長崎_宮崎_鹿児島" data-name="福岡 | 佐賀 | 熊本 大分 | 長崎 | 宮崎 鹿児島" transform="translate(789 2696)" fill="#6b6d70" font-size="14" font-family="NotoSansJP-Regular, Noto Sans JP" letter-spacing="0.05em"><tspan x="-55" y="16">福岡 | 佐賀 | 熊本 </tspan><tspan x="-55" y="36">大分 | 長崎 | 宮崎 </tspan><tspan x="-21" y="56">鹿児島</tspan></text>
    <text id="九州" transform="translate(812 2662)" fill="#6b6d70" font-size="20" font-family="NotoSansJP-Bold, Noto Sans JP" font-weight="700" letter-spacing="0.05em"><tspan x="-20" y="23">九州</tspan></text>
  </g>
</svg>
