<svg id="Group_90" data-name="Group 90" xmlns="http://www.w3.org/2000/svg" width="34.004" height="34.034" viewBox="0 0 34.004 34.034">
  <path id="Path_190" data-name="Path 190" d="M875.329,29.593q0,.769,0,1.538c0,.353.01.706-.008,1.058-.022.446-.26.695-.634.7-.4,0-.65-.264-.684-.717,0-.056,0-.111,0-.167q0-2.173,0-4.345a2.322,2.322,0,0,1,.01-.278.64.64,0,0,1,.48-.554.564.564,0,0,1,.653.187c.281.345.543.706.81,1.063.5.667.993,1.335,1.555,2.089a3.515,3.515,0,0,0,.076-.45c.006-.65,0-1.3.007-1.95a1.921,1.921,0,0,1,.048-.495.642.642,0,0,1,1.258.1,2.72,2.72,0,0,1,.016.389q0,2.089,0,4.178c0,.093,0,.186,0,.279a.638.638,0,0,1-.425.653.663.663,0,0,1-.779-.275c-.568-.757-1.12-1.526-1.679-2.29-.185-.252-.371-.5-.556-.754Z" transform="translate(-858.266 -14.41)"/>
  <g id="Group_89" data-name="Group 89" transform="translate(0 0)">
    <path id="Path_191" data-name="Path 191" d="M823.329-26.475A17.039,17.039,0,0,1,840.306-9.066,17.009,17.009,0,0,1,823.278,7.559a17,17,0,0,1-16.971-17.3A16.961,16.961,0,0,1,823.329-26.475Zm12.334,15.013a7.283,7.283,0,0,0-.655-2.934,10.324,10.324,0,0,0-4.866-5.1,14.489,14.489,0,0,0-9.845-1.38,12.587,12.587,0,0,0-6.868,3.67,8.492,8.492,0,0,0-.343,11.687,12.519,12.519,0,0,0,7.24,4.087c.4.084.807.13,1.207.215A1.074,1.074,0,0,1,822.5,0c-.007.3-.065.59-.1.884-.033.277-.089.552-.1.829-.01.422.191.6.59.492a6.36,6.36,0,0,0,1.138-.442,28.35,28.35,0,0,0,3.949-2.5A37.682,37.682,0,0,0,833.242-5.2,8.624,8.624,0,0,0,835.664-11.462Z" transform="translate(-806.306 26.475)"/>
    <path id="Path_192" data-name="Path 192" d="M850.915,6a8.624,8.624,0,0,1-2.422,6.261,37.678,37.678,0,0,1-5.262,4.464,28.346,28.346,0,0,1-3.949,2.5,6.358,6.358,0,0,1-1.138.442c-.4.111-.6-.07-.59-.492.007-.277.063-.553.1-.829.035-.295.093-.589.1-.884a1.074,1.074,0,0,0-.965-1.221c-.4-.085-.807-.131-1.207-.215a12.519,12.519,0,0,1-7.24-4.087A8.492,8.492,0,0,1,828.681.258a12.587,12.587,0,0,1,6.868-3.67,14.489,14.489,0,0,1,9.845,1.38,10.324,10.324,0,0,1,4.866,5.1A7.285,7.285,0,0,1,850.915,6Zm-12.294.169.143-.046c.185.251.372.5.556.754.559.764,1.111,1.533,1.679,2.29a.663.663,0,0,0,.779.275.638.638,0,0,0,.425-.653c0-.093,0-.186,0-.279q0-2.089,0-4.178a2.72,2.72,0,0,0-.016-.389.642.642,0,0,0-1.258-.1,1.915,1.915,0,0,0-.048.495c-.006.65,0,1.3-.007,1.95a3.5,3.5,0,0,1-.076.45c-.561-.755-1.057-1.423-1.555-2.089-.266-.357-.528-.718-.81-1.063a.564.564,0,0,0-.653-.187.64.64,0,0,0-.48.554,2.3,2.3,0,0,0-.01.278q0,2.173,0,4.345c0,.056,0,.112,0,.167.034.453.288.72.684.717.373,0,.612-.252.634-.7.017-.352.007-.706.008-1.058Q838.621,6.941,838.62,6.171Zm5.811.938h.621c.371,0,.743.011,1.113-.009a.662.662,0,0,0,.658-.685.67.67,0,0,0-.654-.633c-.277-.022-.556-.01-.835-.011s-.582,0-.9,0V4.716c.213,0,.395,0,.576,0,.408-.005.818.008,1.224-.025a.642.642,0,0,0,.589-.631.655.655,0,0,0-.563-.654,1.434,1.434,0,0,0-.277-.026c-.724,0-1.447-.007-2.171.01-.526.012-.731.224-.743.76-.013.556,0,1.113,0,1.67,0,.965-.005,1.93.006,2.895.006.513.213.763.674.773.816.018,1.633.013,2.449-.01a.636.636,0,0,0,.636-.644.694.694,0,0,0-.63-.667c-.294-.029-.593-.008-.89-.015s-.577-.021-.875-.033ZM832.126,8.134c-.016-.222-.032-.35-.033-.479,0-.946,0-1.893-.011-2.839a7.349,7.349,0,0,0-.034-.889.627.627,0,0,0-.649-.566.651.651,0,0,0-.634.587,3.158,3.158,0,0,0-.015.445q0,1.448.007,2.895c0,.5-.009,1,.011,1.5a.6.6,0,0,0,.6.665q1.252.031,2.505,0a.6.6,0,0,0,.622-.644.637.637,0,0,0-.613-.664,6.14,6.14,0,0,0-.667-.014C832.871,8.133,832.522,8.134,832.126,8.134Zm4.247-1.709h0c0-.483,0-.965,0-1.448,0-.334.015-.67-.013-1a.663.663,0,0,0-.621-.605.652.652,0,0,0-.682.6,2.273,2.273,0,0,0-.012.333q0,2.116,0,4.233a1.8,1.8,0,0,0,.029.443.659.659,0,0,0,.976.4.723.723,0,0,0,.323-.668C836.369,7.948,836.372,7.187,836.372,6.425Z" transform="translate(-821.557 9.011)" fill="#fff"/>
    <path id="Path_193" data-name="Path 193" d="M900.2,30.567v1.011c.3.012.587.026.875.033s.6-.013.89.015a.694.694,0,0,1,.63.667.637.637,0,0,1-.636.644c-.816.023-1.633.028-2.449.01-.462-.01-.668-.261-.674-.773-.011-.965-.005-1.93-.006-2.895,0-.557-.01-1.114,0-1.67.013-.536.217-.749.743-.76.723-.016,1.447-.009,2.171-.01a1.434,1.434,0,0,1,.277.026.655.655,0,0,1,.563.654.642.642,0,0,1-.589.631c-.406.033-.815.02-1.224.025-.182,0-.363,0-.576,0v1.055c.323,0,.614,0,.9,0s.558-.011.835.011a.67.67,0,0,1,.654.633.662.662,0,0,1-.658.685c-.37.021-.742.008-1.113.009Z" transform="translate(-877.325 -14.447)"/>
  </g>
  <path id="Path_194" data-name="Path 194" d="M847.237,31.537c.4,0,.745,0,1.094,0a6.138,6.138,0,0,1,.667.014.637.637,0,0,1,.614.664.6.6,0,0,1-.623.644q-1.252.032-2.5,0a.6.6,0,0,1-.6-.665c-.02-.5-.009-1-.011-1.5q0-1.447-.007-2.895a3.149,3.149,0,0,1,.015-.445.651.651,0,0,1,.634-.587.627.627,0,0,1,.649.566,7.337,7.337,0,0,1,.034.889c.006.946.006,1.893.011,2.839C847.205,31.187,847.222,31.315,847.237,31.537Z" transform="translate(-836.669 -14.392)"/>
  <path id="Path_195" data-name="Path 195" d="M865.661,29.856c0,.761,0,1.522,0,2.284a.723.723,0,0,1-.323.668.659.659,0,0,1-.976-.4,1.806,1.806,0,0,1-.029-.443q0-2.116,0-4.233a2.273,2.273,0,0,1,.012-.333.652.652,0,0,1,.682-.6.663.663,0,0,1,.622.605c.028.332.013.668.013,1,0,.483,0,.966,0,1.448Z" transform="translate(-850.845 -14.419)"/>
</svg>
