<svg id="Group_87" data-name="Group 87" xmlns="http://www.w3.org/2000/svg" width="34.029" height="34.022" viewBox="0 0 34.029 34.022">
  <path id="Path_185" data-name="Path 185" d="M311.935-9.4A16.965,16.965,0,0,1,294.913,7.548,17.052,17.052,0,0,1,277.906-9.52a16.992,16.992,0,0,1,17.036-16.955A17.088,17.088,0,0,1,311.935-9.4ZM284.193-1.877a7.246,7.246,0,0,0,1.736.985,13.468,13.468,0,0,0,6.66.976,12.543,12.543,0,0,0,8.6-4.433,13.6,13.6,0,0,0,3.306-9.019.985.985,0,0,1,.39-.794c.57-.528,1.092-1.109,1.626-1.675a1.8,1.8,0,0,0,.193-.374c-.439.143-.785.264-1.137.368a3.177,3.177,0,0,1-1.176.181A4.881,4.881,0,0,0,306.14-18.1c-.263.125-.421.215-.589.278-.642.242-1.288.474-1.931.714a.617.617,0,0,1-.7-.157,4.673,4.673,0,0,0-5.344-.7,4.68,4.68,0,0,0-2.5,4.67c.014.16.022.321.039.56a13.452,13.452,0,0,1-9.594-4.846,3.9,3.9,0,0,0-.679,2.3,4.888,4.888,0,0,0,1.9,3.837,4.765,4.765,0,0,1-1.924-.439,4.806,4.806,0,0,0,3.464,4.606l-.061.11h-1.7a4.173,4.173,0,0,0,1.566,2.285,5.121,5.121,0,0,0,2.692,1.013A9.9,9.9,0,0,1,284.193-1.877Z" transform="translate(-277.906 26.475)"/>
  <path id="Path_186" data-name="Path 186" d="M304.957,24.474a9.9,9.9,0,0,0,6.579-1.992,5.121,5.121,0,0,1-2.692-1.013,4.173,4.173,0,0,1-1.566-2.285h1.7l.061-.11a4.806,4.806,0,0,1-3.464-4.606,4.764,4.764,0,0,0,1.924.439,4.888,4.888,0,0,1-1.9-3.837,3.9,3.9,0,0,1,.679-2.3,13.452,13.452,0,0,0,9.594,4.846c-.017-.239-.025-.4-.039-.56a4.7,4.7,0,0,1,7.848-3.974.617.617,0,0,0,.7.157c.643-.24,1.289-.472,1.931-.714.168-.063.326-.153.589-.278a4.881,4.881,0,0,1-1.752,2.436,3.177,3.177,0,0,0,1.176-.181c.352-.1.7-.225,1.137-.368a1.8,1.8,0,0,1-.193.374c-.534.567-1.055,1.148-1.626,1.675a.985.985,0,0,0-.39.794A13.594,13.594,0,0,1,321.951,22a12.543,12.543,0,0,1-8.6,4.433,13.468,13.468,0,0,1-6.66-.976A7.246,7.246,0,0,1,304.957,24.474Z" transform="translate(-298.67 0.124)" fill="#fff"/>
</svg>
