<svg xmlns="http://www.w3.org/2000/svg" width="80" height="50" viewBox="0 0 80 50">
  <g id="Group_2477" data-name="Group 2477" transform="translate(-803 -2652)">
    <g id="Union_3" data-name="Union 3" transform="translate(-21219 2304)" fill="#fff" opacity="0.8">
      <path d="M 22094 397.25 L 22030 397.25 C 22026.001953125 397.25 22022.75 393.9976806640625 22022.75 390 L 22022.75 356 C 22022.75 352.0023193359375 22026.001953125 348.75 22030 348.75 L 22094 348.75 C 22097.998046875 348.75 22101.25 352.0023193359375 22101.25 356 L 22101.25 390 C 22101.25 393.9976806640625 22097.998046875 397.25 22094 397.25 Z" stroke="none"/>
      <path d="M 22030 349.5 C 22026.416015625 349.5 22023.5 352.4158935546875 22023.5 356 L 22023.5 390 C 22023.5 393.5841064453125 22026.416015625 396.5 22030 396.5 L 22094 396.5 C 22097.583984375 396.5 22100.5 393.5841064453125 22100.5 390 L 22100.5 356 C 22100.5 352.4158935546875 22097.583984375 349.5 22094 349.5 L 22030 349.5 M 22030 348 L 22094 348 C 22098.41796875 348 22102 351.5817260742188 22102 356 L 22102 390 C 22102 394.4182739257812 22098.41796875 398 22094 398 L 22030 398 C 22025.58203125 398 22022 394.4182739257812 22022 390 L 22022 356 C 22022 351.5817260742188 22025.58203125 348 22030 348 Z" stroke="none" fill="#a97106"/>
    </g>
    <text id="沖縄" transform="translate(812 2662)" fill="#6b6d70" font-size="20" font-family="NotoSansJP-Bold, Noto Sans JP" font-weight="700" letter-spacing="0.05em"><tspan x="-20" y="23">沖縄</tspan></text>
  </g>
</svg>
