<svg xmlns="http://www.w3.org/2000/svg" width="103" height="100" viewBox="0 0 103 100">
  <g id="Group_2475" data-name="Group 2475" transform="translate(-782 -2652)">
    <g id="Union_3" data-name="Union 3" transform="translate(-21240 2304)" fill="#fff" opacity="0.8">
      <path d="M 22117 447.25 L 22030 447.25 C 22026.001953125 447.25 22022.75 443.9976806640625 22022.75 440 L 22022.75 356 C 22022.75 352.0023193359375 22026.001953125 348.75 22030 348.75 L 22117 348.75 C 22120.998046875 348.75 22124.25 352.0023193359375 22124.25 356 L 22124.25 440 C 22124.25 443.9976806640625 22120.998046875 447.25 22117 447.25 Z" stroke="none"/>
      <path d="M 22030 349.5 C 22026.416015625 349.5 22023.5 352.4158935546875 22023.5 356 L 22023.5 440 C 22023.5 443.5841064453125 22026.416015625 446.5 22030 446.5 L 22117 446.5 C 22120.583984375 446.5 22123.5 443.5841064453125 22123.5 440 L 22123.5 356 C 22123.5 352.4158935546875 22120.583984375 349.5 22117 349.5 L 22030 349.5 M 22030 348 L 22117 348 C 22121.41796875 348 22125 351.5817260742188 22125 356 L 22125 440 C 22125 444.4182739257812 22121.41796875 448 22117 448 L 22030 448 C 22025.58203125 448 22022 444.4182739257812 22022 440 L 22022 356 C 22022 351.5817260742188 22025.58203125 348 22030 348 Z" stroke="none" fill="#a97106"/>
    </g>
    <text id="徳島_香川_愛媛_高知" data-name="徳島 | 香川 愛媛 | 高知" transform="translate(789 2696)" fill="#6b6d70" font-size="14" font-family="NotoSansJP-Regular, Noto Sans JP" letter-spacing="0.05em"><tspan x="-35" y="16">徳島 | 香川 </tspan><tspan x="-35" y="36">愛媛 | 高知</tspan></text>
    <text id="四国" transform="translate(795 2662)" fill="#6b6d70" font-size="20" font-family="NotoSansJP-Bold, Noto Sans JP" font-weight="700" letter-spacing="0.05em"><tspan x="-20" y="23">四国</tspan></text>
  </g>
</svg>
