<svg id="Group_86" data-name="Group 86" xmlns="http://www.w3.org/2000/svg" width="34.099" height="34.049" viewBox="0 0 34.099 34.049">
  <path id="Path_183" data-name="Path 183" d="M118.772-26.475a17.146,17.146,0,0,1,17.1,17.443A16.952,16.952,0,0,1,118.9,7.574a17.083,17.083,0,0,1-17.122-17.3A16.946,16.946,0,0,1,118.772-26.475ZM120.725,2.3c0-.936,0-1.808,0-2.679q0-1.338,0-2.676,0-1.31,0-2.62c0-.885-.018-1.769,0-2.707h3.573c.178-1.4.351-2.757.535-4.2h-4.095c-.013-.387-.033-.7-.032-1.007,0-.743-.021-1.489.04-2.227a1.42,1.42,0,0,1,1.291-1.389,5.532,5.532,0,0,1,.887-.07c.539-.011,1.078,0,1.617-.006a3.053,3.053,0,0,0,.358-.043,18.116,18.116,0,0,0-.065-3.733c-.848-.044-1.716-.115-2.585-.125a9.388,9.388,0,0,0-1.829.12A4.505,4.505,0,0,0,116.762-18a6.866,6.866,0,0,0-.38,2.3c0,.855.007,1.71.006,2.564,0,.161-.025.322-.042.519-1.191.064-2.353-.029-3.5.061v4.167h3.525c.013.277.031.495.032.712q.02,4.683.037,9.365c0,.195.026.389.042.612Z" transform="translate(-101.772 26.475)"/>
  <path id="Path_184" data-name="Path 184" d="M157.287,19.763h-4.248c-.016-.223-.041-.417-.042-.612q-.021-4.683-.037-9.365c0-.218-.019-.435-.032-.712H149.4V4.907c1.15-.09,2.312,0,3.5-.061.016-.2.041-.358.042-.519,0-.855-.009-1.71-.006-2.564a6.866,6.866,0,0,1,.38-2.3A4.505,4.505,0,0,1,156.976-3.6a9.388,9.388,0,0,1,1.829-.12c.869.01,1.737.081,2.585.125A18.117,18.117,0,0,1,161.456.14a3.054,3.054,0,0,1-.358.043c-.539.005-1.078-.005-1.617.006a5.532,5.532,0,0,0-.887.07A1.42,1.42,0,0,0,157.3,1.648c-.06.739-.036,1.485-.04,2.227,0,.31.019.621.032,1.007h4.095c-.184,1.442-.356,2.8-.535,4.2h-3.573c-.019.937,0,1.822,0,2.707s0,1.747,0,2.62q0,1.338,0,2.676C157.288,17.956,157.287,18.827,157.287,19.763Z" transform="translate(-138.335 9.007)" fill="#fff"/>
</svg>
