<svg id="Group_2116" data-name="Group 2116" xmlns="http://www.w3.org/2000/svg" xmlns:xlink="http://www.w3.org/1999/xlink" width="80" height="80" viewBox="0 0 80 80">
  <defs>
    <clipPath id="clip-path">
      <rect id="Rectangle_1116" data-name="Rectangle 1116" width="68.536" height="66.522" fill="none"/>
    </clipPath>
  </defs>
  <circle id="Ellipse_71" data-name="Ellipse 71" cx="40" cy="40" r="40" fill="#f2f2f2"/>
  <g id="Group_2122" data-name="Group 2122" transform="translate(5.732 6.739)">
    <g id="Group_2122-2" data-name="Group 2122" transform="translate(0 0)" clip-path="url(#clip-path)">
      <path id="Path_3030" data-name="Path 3030" d="M4.475,27.2l-1.768-.346a33.269,33.269,0,0,1,65.185-.5l-1.762.373A31.468,31.468,0,0,0,4.475,27.2" transform="translate(-1.082 0)" fill="#00c0b7"/>
      <path id="Path_3031" data-name="Path 3031" d="M.422,38.9l2.205,3.2,3.2-2.207-.422,2.3L2.206,44.4,0,41.2Z" transform="translate(0 -15.546)" fill="#00c0b7"/>
      <path id="Path_3032" data-name="Path 3032" d="M35.417,92.7A33.4,33.4,0,0,1,2.875,66.35l1.762-.373a31.468,31.468,0,0,0,61.655-.471l1.768.346A33.311,33.311,0,0,1,35.417,92.7" transform="translate(-1.149 -26.178)" fill="#00c0b7"/>
      <path id="Path_3033" data-name="Path 3033" d="M109.854,68.244l-2.206-3.2-3.2,2.207.422-2.3,3.2-2.205,2.206,3.2Z" transform="translate(-41.74 -25.076)" fill="#00c0b7"/>
      <path id="Path_3034" data-name="Path 3034" d="M20.514,47.376h-.251a5.725,5.725,0,0,1-5.725-5.725V41.5a5.716,5.716,0,0,1,4.69-5.628v-.046a5.727,5.727,0,0,1,0-8.1l.1-.1a5.72,5.72,0,0,1,5.945-1.363,4.442,4.442,0,0,1,.435.174l.112-.252a5.734,5.734,0,0,1,4.609-6.138l.149-.026a5.736,5.736,0,0,1,4.834,1.28A5.731,5.731,0,0,1,40.77,17.61h.149a5.74,5.74,0,0,1,5.311,3.569A5.72,5.72,0,0,1,50.9,20.016l.143.026a5.729,5.729,0,0,1,4.593,6.293l.046.139a5.713,5.713,0,0,1,6.462,1.147l.107.1a5.722,5.722,0,0,1,.041,8.055,5.726,5.726,0,0,1,5.52,5.72v.153a5.732,5.732,0,0,1-5.73,5.725H46.326v.066a5.089,5.089,0,0,1-5.089,5.09H35.41V52.6a5.09,5.09,0,0,1-5.09,5.09H20.514a5.093,5.093,0,0,1-5.091-5.09v-.133a5.09,5.09,0,0,1,5.091-5.09" transform="translate(-5.81 -7.037)" fill="#e24c5d"/>
      <path id="Path_3035" data-name="Path 3035" d="M47.284,72.892H29.669V71.887H47.284A4.592,4.592,0,0,0,51.871,67.3h1.005a5.6,5.6,0,0,1-5.592,5.592" transform="translate(-11.856 -26.895)" fill="#fff"/>
      <path id="Path_3036" data-name="Path 3036" d="M30.575,77.669H20.769a5.6,5.6,0,0,1-5.592-5.592v-.133a5.6,5.6,0,0,1,5.592-5.592v1.005a4.593,4.593,0,0,0-4.588,4.587v.133a4.593,4.593,0,0,0,4.588,4.587h9.806a4.593,4.593,0,0,0,4.587-4.587h1a5.6,5.6,0,0,1-5.592,5.592" transform="translate(-6.065 -26.515)" fill="#fff"/>
      <path id="Path_3037" data-name="Path 3037" d="M75.977,59.633H49.294V58.628H75.977a5.231,5.231,0,0,0,5.228-5.223v-.153a5.2,5.2,0,0,0-5.036-5.218c-.074,0-.131,0-.192,0H68.982V47.025h6.995c.085,0,.169,0,.247.007a6.2,6.2,0,0,1,5.986,6.221v.153a6.237,6.237,0,0,1-6.233,6.228" transform="translate(-19.699 -18.792)" fill="#fff"/>
      <path id="Path_3038" data-name="Path 3038" d="M25.469,59.633h-5.54A6.235,6.235,0,0,1,13.7,53.406v-.153a6.212,6.212,0,0,1,5.1-6.123,5.776,5.776,0,0,1,1.125-.105h3.784V48.03H19.929a4.82,4.82,0,0,0-.937.087,5.209,5.209,0,0,0-4.287,5.136v.153a5.229,5.229,0,0,0,5.223,5.223h5.54Z" transform="translate(-5.475 -18.792)" fill="#fff"/>
      <path id="Path_3039" data-name="Path 3039" d="M49.385,21.283l-.4-.327-.457-.175a6.273,6.273,0,0,1,5.824-4.009H54.5a6.217,6.217,0,0,1,5.776,3.882l-.931.379A5.215,5.215,0,0,0,54.5,17.777h-.149a5.261,5.261,0,0,0-4.886,3.364.521.521,0,0,1-.083.142" transform="translate(-19.394 -6.703)" fill="#fff"/>
      <path id="Path_3040" data-name="Path 3040" d="M79.926,62.921H78.921a5.233,5.233,0,0,0-5.227-5.227H70V56.688h3.692a6.239,6.239,0,0,1,6.232,6.232" transform="translate(-27.975 -22.654)" fill="#fff"/>
      <path id="Path_3041" data-name="Path 3041" d="M38.873,61.056H37.868a5.23,5.23,0,0,0-5.227-5.222h-.148V54.829h.148a6.237,6.237,0,0,1,6.232,6.227" transform="translate(-12.985 -21.911)" fill="#fff"/>
      <path id="Path_3042" data-name="Path 3042" d="M58.647,58.889H57.642V53.252a6.238,6.238,0,0,1,6.233-6.228v1.005a5.231,5.231,0,0,0-5.228,5.223Z" transform="translate(-23.035 -18.792)" fill="#fff"/>
      <path id="Path_3043" data-name="Path 3043" d="M36.01,44.55H30.377V43.545H36.01a5.233,5.233,0,0,0,5.227-5.227h1.005A6.239,6.239,0,0,1,36.01,44.55" transform="translate(-12.139 -15.313)" fill="#fff"/>
      <path id="Path_3044" data-name="Path 3044" d="M88.669,41.4l-.4-.415-.357-.219A.469.469,0,0,1,88,40.637a5.239,5.239,0,0,0-.038-7.347l-.1-.094a5.237,5.237,0,0,0-5.9-1.055,5.1,5.1,0,0,0-1.5,1.047l-.71-.71a6.1,6.1,0,0,1,1.785-1.249,6.235,6.235,0,0,1,7.027,1.249l.1.093a6.251,6.251,0,0,1,.067,8.756.71.71,0,0,1-.064.07" transform="translate(-31.872 -12.249)" fill="#fff"/>
      <path id="Path_3045" data-name="Path 3045" d="M59.745,29.767l-.533-.851a5.223,5.223,0,0,0,2.332-3.262,6.255,6.255,0,0,1,7.308-4.931l.137.025a6.259,6.259,0,0,1,5,6.847l-1-.118a5.248,5.248,0,0,0-4.19-5.741l-.137-.024a5.25,5.25,0,0,0-6.141,4.155,6.227,6.227,0,0,1-2.782,3.9" transform="translate(-23.663 -8.235)" fill="#fff"/>
      <path id="Path_3046" data-name="Path 3046" d="M20.546,41.39a6.238,6.238,0,0,1,0-8.811l.1-.1a6.259,6.259,0,0,1,6.465-1.481,4.73,4.73,0,0,1,.481.193,6.1,6.1,0,0,1,1.867,1.29l-.715.707A5.12,5.12,0,0,0,27.181,32.1a3.891,3.891,0,0,0-.394-.157,5.242,5.242,0,0,0-5.426,1.24l-.105.1a5.232,5.232,0,0,0,0,7.389Z" transform="translate(-7.483 -12.249)" fill="#fff"/>
      <path id="Path_3047" data-name="Path 3047" d="M32.485,27.422A6.217,6.217,0,0,1,37.5,20.744l.159-.028A6.214,6.214,0,0,1,42.9,22.11a6.105,6.105,0,0,1,1.277,1.518l-.863.514a5.084,5.084,0,0,0-1.067-1.269,5.219,5.219,0,0,0-4.412-1.17l-.158.028a5.213,5.213,0,0,0-4.194,5.6Z" transform="translate(-12.971 -8.233)" fill="#fff"/>
    </g>
  </g>
</svg>
