<svg xmlns="http://www.w3.org/2000/svg" width="112" height="120" viewBox="0 0 112 120">
  <g id="Group_2473" data-name="Group 2473" transform="translate(-782 -2652)">
    <g id="Union_3" data-name="Union 3" transform="translate(-21240 2304)" fill="#fff" opacity="0.8">
      <path d="M 22126 467.25 L 22030 467.25 C 22026.001953125 467.25 22022.75 463.9976501464844 22022.75 460 L 22022.75 356 C 22022.75 352.0023498535156 22026.001953125 348.75 22030 348.75 L 22126 348.75 C 22129.998046875 348.75 22133.25 352.0023498535156 22133.25 356 L 22133.25 460 C 22133.25 463.9976501464844 22129.998046875 467.25 22126 467.25 Z" stroke="none"/>
      <path d="M 22030 349.5 C 22026.416015625 349.5 22023.5 352.4158935546875 22023.5 356 L 22023.5 460 C 22023.5 463.5841064453125 22026.416015625 466.5 22030 466.5 L 22126 466.5 C 22129.583984375 466.5 22132.5 463.5841064453125 22132.5 460 L 22132.5 356 C 22132.5 352.4158935546875 22129.583984375 349.5 22126 349.5 L 22030 349.5 M 22030 348 L 22126 348 C 22130.41796875 348 22134 351.5817260742188 22134 356 L 22134 460 C 22134 464.4182739257812 22130.41796875 468 22126 468 L 22030 468 C 22025.58203125 468 22022 464.4182739257812 22022 460 L 22022 356 C 22022 351.5817260742188 22025.58203125 348 22030 348 Z" stroke="none" fill="#a97106"/>
    </g>
    <text id="大阪_兵庫_京都_滋賀_奈良_和歌山" data-name="大阪 | 兵庫
京都 | 滋賀
奈良 | 和歌山" transform="translate(789 2696)" fill="#6b6d70" font-size="14" font-family="NotoSansJP-Regular, Noto Sans JP" letter-spacing="0.05em"><tspan x="-35" y="16">大阪 | 兵庫</tspan><tspan x="-35" y="36">京都 | 滋賀</tspan><tspan x="-42" y="56">奈良 | 和歌山</tspan></text>
    <text id="関西" transform="translate(812 2662)" fill="#6b6d70" font-size="20" font-family="NotoSansJP-Bold, Noto Sans JP" font-weight="700" letter-spacing="0.05em"><tspan x="-20" y="23">関西</tspan></text>
  </g>
</svg>
