<svg xmlns="http://www.w3.org/2000/svg" width="94" height="50" viewBox="0 0 94 50">
  <g id="Group_2469" data-name="Group 2469" transform="translate(-803 -2652)">
    <g id="Union_3" data-name="Union 3" transform="translate(-21219 2304)" fill="#fff" opacity="0.8">
      <path d="M 22108 397.25 L 22030 397.25 C 22026.001953125 397.25 22022.75 393.9976501464844 22022.75 390 L 22022.75 356 C 22022.75 352.0023498535156 22026.001953125 348.75 22030 348.75 L 22108 348.75 C 22111.998046875 348.75 22115.25 352.0023498535156 22115.25 356 L 22115.25 390 C 22115.25 393.9976501464844 22111.998046875 397.25 22108 397.25 Z" stroke="none"/>
      <path d="M 22030 349.5 C 22026.416015625 349.5 22023.5 352.4158935546875 22023.5 356 L 22023.5 390 C 22023.5 393.5841064453125 22026.416015625 396.5 22030 396.5 L 22108 396.5 C 22111.583984375 396.5 22114.5 393.5841064453125 22114.5 390 L 22114.5 356 C 22114.5 352.4158935546875 22111.583984375 349.5 22108 349.5 L 22030 349.5 M 22030 348 L 22108 348 C 22112.41796875 348 22116 351.5817260742188 22116 356 L 22116 390 C 22116 394.4182739257812 22112.41796875 398 22108 398 L 22030 398 C 22025.58203125 398 22022 394.4182739257812 22022 390 L 22022 356 C 22022 351.5817260742188 22025.58203125 348 22030 348 Z" stroke="none" fill="#a97106"/>
    </g>
    <text id="北海道" transform="translate(812 2662)" fill="#6b6d70" font-size="20" font-family="NotoSansJP-Bold, Noto Sans JP" font-weight="700" letter-spacing="0.05em"><tspan x="-31" y="23">北海道</tspan></text>
  </g>
</svg>
