<svg id="Group_88" data-name="Group 88" xmlns="http://www.w3.org/2000/svg" width="34.103" height="34.09" viewBox="0 0 34.103 34.09">
  <path id="Path_187" data-name="Path 187" d="M664.276-9.491a17.129,17.129,0,0,1-17.1,17.106,16.94,16.94,0,0,1-17-16.929,17.076,17.076,0,0,1,17.272-17.161A16.965,16.965,0,0,1,664.276-9.491ZM647.094-1.419c1.724-.038,3.21-.055,4.7-.108,1.243-.045,2.488-.1,3.727-.211a2.771,2.771,0,0,0,2.561-2.069,6.711,6.711,0,0,0,.276-1.248,39.1,39.1,0,0,0-.008-8.953,7.9,7.9,0,0,0-.476-1.651,2.043,2.043,0,0,0-.763-.936,3.634,3.634,0,0,0-2.1-.651c-1.726-.072-3.452-.17-5.179-.181-2.508-.016-5.016.018-7.524.066-1.113.022-2.229.091-3.336.209a2.807,2.807,0,0,0-2.583,2.121,7.777,7.777,0,0,0-.288,1.359,42.293,42.293,0,0,0-.023,8.455,8.024,8.024,0,0,0,.35,1.572,2.522,2.522,0,0,0,2.006,1.807,9.44,9.44,0,0,0,1.654.221C642.5-1.533,644.917-1.478,647.094-1.419Z" transform="translate(-630.173 26.476)"/>
  <path id="Path_188" data-name="Path 188" d="M665.937,28.458c-2.177-.059-4.592-.114-7.006-.2a9.439,9.439,0,0,1-1.654-.221,2.522,2.522,0,0,1-2.006-1.807,8.019,8.019,0,0,1-.35-1.572,42.293,42.293,0,0,1,.023-8.455,7.789,7.789,0,0,1,.288-1.359,2.807,2.807,0,0,1,2.583-2.121c1.107-.118,2.223-.187,3.336-.209,2.507-.048,5.016-.082,7.524-.066,1.727.011,3.453.109,5.179.181a3.633,3.633,0,0,1,2.1.651,2.042,2.042,0,0,1,.763.936,7.9,7.9,0,0,1,.476,1.651,39.1,39.1,0,0,1,.008,8.953,6.711,6.711,0,0,1-.276,1.248,2.771,2.771,0,0,1-2.561,2.069c-1.238.114-2.484.166-3.727.211C669.147,28.4,667.661,28.42,665.937,28.458Zm3.773-8.148c-2.029-1.071-3.956-2.065-5.935-3.083-.021.2-.043.312-.042.42q.01,2.866.027,5.733c0,.012.024.026.038.036s.031.02.092.059Z" transform="translate(-649.016 -3.401)" fill="#fff"/>
  <path id="Path_189" data-name="Path 189" d="M699.475,36.1l-5.82,3.164c-.062-.039-.078-.047-.093-.059s-.037-.024-.038-.036q-.016-2.866-.027-5.733c0-.108.021-.215.042-.42C695.519,34.033,697.446,35.027,699.475,36.1Z" transform="translate(-678.781 -19.189)"/>
</svg>
