<svg xmlns="http://www.w3.org/2000/svg" width="585.53" height="431.564" viewBox="0 0 585.53 431.564">
  <g id="Group_2467" data-name="Group 2467" transform="translate(0 -0.002)">
    <path id="Path_3417" data-name="Path 3417" d="M437.942,1755.745H403.735v28.9H434.7v-10.99h3.24Z" transform="translate(-331.093 -1439.84)" fill="#d2a652" opacity="0.9"/>
    <rect id="Rectangle_1228" data-name="Rectangle 1228" width="28.901" height="26.836" transform="translate(40.501 319.76)" fill="#d2a652" opacity="0.9"/>
    <rect id="Rectangle_1229" data-name="Rectangle 1229" width="28.901" height="26.836" transform="translate(40.501 349.576)" fill="#d2a652" opacity="0.9"/>
    <rect id="Rectangle_1230" data-name="Rectangle 1230" width="30.967" height="30.967" transform="translate(72.642 348.047)" fill="#d2a652" opacity="0.9"/>
    <rect id="Rectangle_1231" data-name="Rectangle 1231" width="28.901" height="28.901" transform="translate(106.849 337.067)" fill="#d2a652" opacity="0.9"/>
    <rect id="Rectangle_1232" data-name="Rectangle 1232" width="28.901" height="37.852" transform="translate(106.849 369.052)" fill="#d2a652" opacity="0.9"/>
    <rect id="Rectangle_1233" data-name="Rectangle 1233" width="13.712" height="22.889" transform="translate(0 406.904)" fill="#d2a652" opacity="0.9"/>
    <path id="Path_3418" data-name="Path 3418" d="M403.735,2124.5v39.307h10.9v-6.417h9.17v6.417h10.9V2124.5Z" transform="translate(-331.093 -1742.247)" fill="#d2a652" opacity="0.9"/>
    <rect id="Rectangle_1234" data-name="Rectangle 1234" width="38.193" height="15.198" transform="translate(196.209 354.185)" fill="#d2a652" opacity="0.7"/>
    <rect id="Rectangle_1235" data-name="Rectangle 1235" width="38.193" height="15.198" transform="translate(196.209 335.747)" fill="#d2a652" opacity="0.7"/>
    <rect id="Rectangle_1236" data-name="Rectangle 1236" width="38.103" height="27.267" transform="translate(154.866 346.625)" fill="#d2a652" opacity="0.7"/>
    <path id="Path_3419" data-name="Path 3419" d="M963.357,2070.973H931.845v4.51h-34.81v21.566h40.9v-7.71h25.42Z" transform="translate(-735.636 -1698.35)" fill="#d2a652" opacity="0.7"/>
    <rect id="Rectangle_1237" data-name="Rectangle 1237" width="39.085" height="19.522" transform="translate(181.28 271.229)" fill="#d2a652" opacity="0.5"/>
    <rect id="Rectangle_1238" data-name="Rectangle 1238" width="48.748" height="19.502" transform="translate(129.292 271.229)" fill="#d2a652" opacity="0.5"/>
    <rect id="Rectangle_1239" data-name="Rectangle 1239" width="30.278" height="29.744" transform="translate(190.087 293.971)" fill="#d2a652" opacity="0.5"/>
    <rect id="Rectangle_1240" data-name="Rectangle 1240" width="30.278" height="29.744" transform="translate(156.568 293.971)" fill="#d2a652" opacity="0.5"/>
    <rect id="Rectangle_1241" data-name="Rectangle 1241" width="30.278" height="29.744" transform="translate(123.05 293.971)" fill="#d2a652" opacity="0.5"/>
    <path id="Path_3420" data-name="Path 3420" d="M1437.92,1873.491v-8.8h-28.9v35.5h44.043v-26.706Z" transform="translate(-1155.5 -1529.187)" fill="#d2a652" opacity="0.9"/>
    <rect id="Rectangle_1242" data-name="Rectangle 1242" width="28.901" height="28.901" transform="translate(317.8 286.489)" fill="#d2a652" opacity="0.9"/>
    <path id="Path_3421" data-name="Path 3421" d="M1525.26,1522.7v-15.259h-34.754v28.9h17.48v8.85h28.9V1522.7Z" transform="translate(-1222.326 -1236.215)" fill="#d2a652" opacity="0.9"/>
    <rect id="Rectangle_1243" data-name="Rectangle 1243" width="28.901" height="28.901" transform="translate(253.518 303.367)" fill="#d2a652" opacity="0.9"/>
    <path id="Path_3422" data-name="Path 3422" d="M1284.1,1507.443h-41.335v52.486h26.661v-23.584H1284.1Z" transform="translate(-1019.16 -1236.214)" fill="#d2a652" opacity="0.9"/>
    <rect id="Rectangle_1244" data-name="Rectangle 1244" width="28.901" height="28.901" transform="translate(285.66 312.162)" fill="#d2a652" opacity="0.9"/>
    <path id="Path_3423" data-name="Path 3423" d="M1688.809,1770.89v25.673h-17v19.826h45.9v-45.5Z" transform="translate(-1371.009 -1452.26)" fill="#d2a652" opacity="0.7"/>
    <path id="Path_3424" data-name="Path 3424" d="M2218.955,1223.988v10.458h-67.778v23.519h80.691v-33.976Z" transform="translate(-1764.125 -1003.759)" fill="#d2a652" opacity="0.5"/>
    <rect id="Rectangle_1245" data-name="Rectangle 1245" width="33.87" height="23.519" transform="translate(349.941 243.175)" fill="#d2a652" opacity="0.5"/>
    <rect id="Rectangle_1246" data-name="Rectangle 1246" width="28.901" height="34.816" transform="translate(317.8 218.137)" fill="#d2a652" opacity="0.5"/>
    <rect id="Rectangle_1247" data-name="Rectangle 1247" width="40.527" height="27.085" transform="translate(306.174 256.193)" fill="#d2a652" opacity="0.5"/>
    <path id="Path_3425" data-name="Path 3425" d="M2151.177,1430.831v61.2h21.113v-32.142h17.421v-29.056Z" transform="translate(-1764.125 -1173.387)" fill="#d2a652" opacity="0.5"/>
    <rect id="Rectangle_1248" data-name="Rectangle 1248" width="33.87" height="48.709" transform="translate(349.941 269.933)" fill="#d2a652" opacity="0.7"/>
    <rect id="Rectangle_1249" data-name="Rectangle 1249" width="48.646" height="29.457" transform="translate(391.66 321.858)" fill="#d2a652" opacity="0.7"/>
    <rect id="Rectangle_1250" data-name="Rectangle 1250" width="38.478" height="29.457" transform="translate(349.941 321.858)" fill="#d2a652" opacity="0.7"/>
    <rect id="Rectangle_1251" data-name="Rectangle 1251" width="28.901" height="28.901" transform="translate(411.404 289.741)" fill="#d2a652" opacity="0.5"/>
    <path id="Path_3426" data-name="Path 3426" d="M2703.137,1430.831v32.5h-8.195v14.287H2726.1v-46.79Z" transform="translate(-2210.054 -1173.387)" fill="#d2a652" opacity="0.9"/>
    <rect id="Rectangle_1252" data-name="Rectangle 1252" width="28.901" height="28.861" transform="translate(428.801 257.445)" fill="#d2a652" opacity="0.9"/>
    <rect id="Rectangle_1253" data-name="Rectangle 1253" width="28.901" height="28.905" transform="translate(460.942 257.445)" fill="#d2a652" opacity="0.9"/>
    <rect id="Rectangle_1254" data-name="Rectangle 1254" width="38.103" height="17.263" transform="translate(443.546 289.741)" fill="#d2a652" opacity="0.9"/>
    <path id="Path_3427" data-name="Path 3427" d="M2694.942,1709.946v14.287h7.978V1753.6H2726.1v-43.65Z" transform="translate(-2210.053 -1402.281)" fill="#d2a652" opacity="0.9"/>
    <rect id="Rectangle_1255" data-name="Rectangle 1255" width="38.103" height="17.263" transform="translate(443.546 310.245)" fill="#d2a652" opacity="0.9"/>
    <rect id="Rectangle_1256" data-name="Rectangle 1256" width="38.103" height="17.263" transform="translate(443.546 330.748)" fill="#d2a652" opacity="0.9"/>
    <path id="Path_3428" data-name="Path 3428" d="M2620.975,563.654V572h-22.24v-4.712h-14.268v27.292h50.776V563.654Z" transform="translate(-2119.455 -462.237)" fill="#d2a652" opacity="0.7"/>
    <rect id="Rectangle_1257" data-name="Rectangle 1257" width="28.901" height="39.967" transform="translate(492.866 135.584)" fill="#d2a652" opacity="0.7"/>
    <rect id="Rectangle_1258" data-name="Rectangle 1258" width="28.901" height="38.197" transform="translate(492.866 178.791)" fill="#d2a652" opacity="0.7"/>
    <rect id="Rectangle_1259" data-name="Rectangle 1259" width="28.901" height="40.01" transform="translate(460.725 135.541)" fill="#d2a652" opacity="0.7"/>
    <rect id="Rectangle_1260" data-name="Rectangle 1260" width="28.901" height="38.197" transform="translate(460.725 178.791)" fill="#d2a652" opacity="0.7"/>
    <rect id="Rectangle_1261" data-name="Rectangle 1261" width="44.89" height="33.976" transform="translate(470.983 220.228)" fill="#d2a652" opacity="0.7"/>
    <path id="Path_3429" data-name="Path 3429" d="M2622.49,0V72.357h-16.026V92.3h24.353V82.328h92.207V0Z" transform="translate(-2137.495)" fill="#d2a652" opacity="0.9"/>
    <path id="Path_3430" data-name="Path 3430" d="M-21731.326,2422.481h25.736v38.974" transform="translate(21731.326 -2029.889)" fill="none" stroke="#ccc" stroke-width="2"/>
  </g>
</svg>
