<svg xmlns="http://www.w3.org/2000/svg" width="261.761" height="53.71" viewBox="0 0 261.761 53.71">
  <g id="Group_1763" data-name="Group 1763" transform="translate(-185.555 -370.568)">
    <g id="Group_1763-2" data-name="Group 1763" transform="translate(211.368 408.839)">
      <path id="Path_2687" data-name="Path 2687" d="M222.411,424.358h-.576A4.873,4.873,0,0,0,222.411,424.358Z" transform="translate(-221.835 -424.358)" fill="#3c8e36"/>
    </g>
    <g id="Group_1764" data-name="Group 1764" transform="translate(185.555 408.796)">
      <line id="Line_672" data-name="Line 672" x2="261.762" fill="none" stroke="#1a1818" stroke-width="1.563"/>
    </g>
    <g id="Group_1765" data-name="Group 1765" transform="translate(189.986 370.568)">
      <path id="Path_2688" data-name="Path 2688" d="M241.518,394.92a7.139,7.139,0,0,1-1.363-1.22l-.171.176a.86.86,0,0,1-.348-.869c-.224.051-.567-.123-.694.171-1.01-.541.527-.938,0-1.7-.221-.423-.64-.354-1.01-.354-1.294-.493.238-1.109-.181-1.875-.344-.77-.913,0-1.387,0-.649-.6.568-1.016.7-1.365-.593-.572-1.46-.3-2.051-.871a1.987,1.987,0,0,1,0-1.707.7.7,0,0,0-.869-.517c-1.143,1.53-.648-.845-1.886-.7.231-1.661-1.758-1.015-2.576-1.711,0-.6.643-.937.694-1.537a1.137,1.137,0,0,0-.872-.86c-.122-.3.225-.428.179-.672-.6-.346-1.064.642-1.885.315-.522-.487.269-.938,0-1.531-.371.049-.9-.12-1.187.172-.766-.546,0-1.334-.176-2.058-.266-.3-.7-.12-1.039-.172a1.2,1.2,0,0,1-.52-1.019c-1.189,0,.147-.81-.149-1.385-.642-.369-1.164.6-1.728,1.045-.652-.69.464-1.515.344-2.4-.694-.052-1.713.889-2.06-.172a.855.855,0,0,0-.863.344c-.3-.172-.3-.47-.5-.692-1.284,1.155-.768-1.511-2.054-.349-.268-1.412-1.587-.068-2.4-.837,0,1.583-1.295-.225-1.736.665a3.474,3.474,0,0,1-2.382,1.386c-.788.25-.742.818-1.213,1.37-1.191-.251-.692,1.508-2.056.862-.047.373.122.889-.172,1.187-.551-.768-1.187-.249-1.883-.175a1.9,1.9,0,0,0-.694,1.881l-.512-.489c0,.467-1.023.721-.51,1.188-.64.246-.513,1.291-1.386,1.042-.164-.225-.492-.4-.492-.694h-.344a1.6,1.6,0,0,1-.35.694c-1.213.023-.987,2.522-2.748,1.885-.075.244.223.338.346.49.224.746-.646,1.039-1.044,1.395a2.218,2.218,0,0,0,.181.838c-.253.619-.6.1-1.019.171-.444.821-.7,2.2-1.881,2.226a1.021,1.021,0,0,1,0,1.392c-.224-.052-.568.119-.7-.172-.519.522-.768-.7-1.359-.527.191,1.067-1.684,1.217-.523,2.236-1.037.218-.593,1.337-1.21,1.882,1.086.473.736,1.811,1.385,2.576-.3.743-.769.941-1.045,1.535a4.575,4.575,0,0,1,1.217.347c-.221.171-.4.474-.691.348-.179,1.81,2.576,1.291,2.226,3.091.3.127.523.5.867.178.769-.623.894.669,1.358,1.016a4.025,4.025,0,0,0,1.886-.7l.519.7c.818.3,1.164-.892,1.885-1.194.4,1.785,1.757-.643,2.232.847.221-.026.539.147.684-.176l.854,1.042.684-1.042.7.351.673-1.022c.565.178.639-.69,1.214-.523.075,2.184,2.572-.042,3.065,1.89.647-.546,1.265.4,1.915-.173.785.867.539,2.177.837,3.264-.818,1.464.127,3-.174,4.637a.524.524,0,0,1-.444.317h4.06c-.294-.291-.144-.791-.174-1.18-.983-1-.22-2.058-.691-3.274,1.041-.964-.773-3.718,1.538-3.591,1.284-1.065,3.17-.647,4.453-1.708.623.171,1.419.292,1.736.84.965-.943,1.911.322,3.07,0v-.321c.526-.474.921-1.12,1.716-.868.866-2.1.734.992,1.73.69.6-.048,1.713.127,2.057.847.817-1.291,2.057.272,3.244,0,.124-.369-.191-.545-.343-.847.817-.341,1.509.6,2.4.5.795-.021,0-.891,0-1.365.571.127.795-.934,1.389-.344v-.672c-.4-.689,1.064-1.631-.176-2.223C240.155,394.739,240.951,395.389,241.518,394.92Zm-47.73-4.139-.169-.182.169-.15.178.15Zm2.254,3.822h.526l-.179.5Zm.175,3.452c-.078-.3.4-.522.527-.171C196.665,398.1,196.39,398.056,196.218,398.056Zm.7.879h-.171v-.351h.171Zm-.171-10.583h-.527c.048-.507,0-1.383.877-1.032C197.217,387.752,196.867,388.023,196.744,388.352Zm2.423,3.474-.172.175-.35-.35C198.821,391.651,199.073,391.6,199.167,391.826Zm-.879-6.4c.231.171.756.045.533.522h-.533Zm.879,11.257c-.522.075-.743-.048-.879-.525.356-.3,1.051-.9,1.408-.175C199.722,396.327,199.641,396.878,199.167,396.679Zm1.2-9.71h-.328c-.048-.3.249-.376.5-.347C200.595,386.8,200.471,386.9,200.371,386.969Zm.876,9.537H200.9c.052-.179-.078-.273-.175-.352a.288.288,0,0,1,.526,0Zm.7-14.39-.174.171c-.3-.171-.127-.544-.179-.844l.352-.353A.789.789,0,0,1,201.947,382.116Zm1.552.525c-.176.053-.254-.077-.351-.171l.176-.354c.1.1.176.223.351.171C203.72,382.469,203.573,382.564,203.5,382.641Zm3.128-4.5c.074.721-.578,1.175-.879,1.73l-.526-.181C205.176,378.965,205.88,377.712,206.627,378.14Zm-.344,13.686c-.4,0-.832.077-1.062-.35l.179-.526C205.7,391.228,206.627,391.053,206.283,391.826Zm.168-10.237a.268.268,0,0,1,0-.5c.348-.124.6.2.675.353C207,381.743,206.652,381.567,206.451,381.589Zm5.7-4.152v.524H211.8c.049-.171-.071-.249-.172-.343C211.73,377.41,211.977,377.437,212.155,377.437Zm-1.2,1.577c.172,0,.419-.048.5.179-.157.2-.078.72-.5.678A.456.456,0,0,1,210.958,379.013Zm-.879-.527h-.7c.226-.47,1-.424,1.407-.869C210.855,378.063,210.731,378.79,210.078,378.487Zm.879,16.463c-.175,0-.454.029-.531-.171a.28.28,0,0,1,.531-.175Zm-.353-3.124c.353-.428.694-2.177,1.55-1.044C212.584,391.9,211.13,391.476,210.6,391.826Zm4.86-15.589c-.231.074-.185.346-.185.523-.646-.046.03-.3-.176-.7C215.28,376.009,215.36,376.135,215.465,376.236Zm-.361,2.777v.179l-.176-.179Zm-.872,10.908-.347.354c-.428-.107-.3-.83.171-.7C214.031,389.746,214.157,389.821,214.232,389.921Zm-1.025-12.836c-.4-.622.678-.975.849-.326.049.174-.073.251-.171.326Zm.678,16.116c-.428-.2-.33-.652-.33-1.024.5-.226.908.349,1.024.674C214.508,393,214.232,393.354,213.885,393.2Zm.694-18.367-.169-.32c.169-.053.27.074.346.171Zm.526-2.576v.324l-.348-.324Zm-.176,25.276.176-.5c.3.124.13.471.176.669C215.1,397.753,215.007,397.635,214.929,397.534Zm.536,3.475a3.332,3.332,0,0,1-.361-1.73l.529-.521A2.442,2.442,0,0,1,215.465,401.008Zm6.92-25.649h.182v.351h-.182Zm-1.924,15.422v.519c-.421.176-.545-.35-.85-.519A.56.56,0,0,1,220.461,390.781Zm-.5,3.3c-.1.068-.18.218-.355.171l-.176-.171A.29.29,0,0,1,219.966,394.081Zm.351-12.492v.355c-.277.1-.351-.2-.531-.355A.312.312,0,0,1,220.317,381.589Zm-2.257-9.857h.149v.351h-.149Zm-1.4,1.2c.053.171-.075.276-.172.349l-.178-.179C216.409,373.033,216.486,372.91,216.658,372.934Zm-.172,18.366h-.178a.533.533,0,0,1,.7-.7C217.133,391.122,216.835,391.122,216.486,391.3Zm.526-2.075c-.429-.052-.526-.526-.526-.873.4-.432,1.4-1.454,1.4-.154C217.658,388.621,217.658,389.225,217.012,389.225Zm1.2-6.938v.182l-.149-.182Zm0,4.682a1.486,1.486,0,0,1,1.4-.529c0,.659-.6,1.107-1.051,1.583C218.137,387.8,218.209,387.371,218.209,386.969Zm2.108,1.9c0,.179.021.453-.18.532a4.791,4.791,0,0,0-1.4-.175A1.273,1.273,0,0,1,220.317,388.868Zm0,10.238c-.453.026-1.007,0-1.056-.522l.174-.882a2.388,2.388,0,0,1,1.552.528A2.785,2.785,0,0,1,220.317,399.106Zm2.068-1.05c-.221.174-.4.476-.694.347-.428-.6-.105-1.6.876-1.2C222.885,397.534,222.522,397.753,222.385,398.056Zm-1.047-16.79.178-.35a.388.388,0,0,0,.344.175v.353C221.691,381.443,221.442,381.466,221.338,381.265Zm.7-3.476a.849.849,0,0,1-.867-.353c.221-.549.948-1.2,1.545-.677C222.94,377.265,222.385,377.664,222.035,377.79Zm1.9,3.476h-.526v-.526c.228.053.578-.125.7.176C224.17,381.09,224.017,381.167,223.939,381.265Zm.705,14.714c-.474-.228.123-.6.179-.7C224.767,395.5,224.946,395.857,224.644,395.979Zm2.076-.522c.346-.3.246-1.2,1.026-.853C227.746,395.252,227.142,395.252,226.72,395.457Zm1.895-14.718v.352a.407.407,0,0,1-.347-.175C228.345,380.814,228.45,380.688,228.615,380.739Zm0,16.795h-.165V397.2h.165Zm0-1.38-.347-.35h.525A.381.381,0,0,1,228.615,396.154Zm.178-13.163c-.4.052-.343-.428-.343-.7h.694C229.273,382.591,228.966,382.767,228.793,382.991Zm.174.857c.077-.081.178-.2.352-.156.029.156-.1.249-.174.327Zm.677,6.933c-.3.046-.37-.26-.324-.507h.5C229.821,390.449,229.873,390.7,229.643,390.781Zm-.172-2.937c-.123-.447.225-1.349.7-.876C230.224,387.371,229.821,387.871,229.471,387.844Zm2.6,1.2c.049.179-.082.275-.178.354l-.318-.354ZM231.9,394.6v.175l-.179-.175Zm-.85-4.329h.174v.324h-.174Zm0,7.077c-.4-.195,0-.5.174-.673.482,0,1.158-.1,1.2.526C232.174,397.753,231.4,397.582,231.045,397.352Zm2.6.181-.172-.329h.172Zm1.552-9.51h.349v.329c-.175-.033-.271.1-.349.172A.269.269,0,0,1,235.2,388.023Zm.525,4.154c-.3-.053-.7.122-.876-.176.305-.279.578-.7,1.047-.525C235.851,391.7,236.022,392.053,235.723,392.177Zm.35,5.707-.179-.182h.179Z" transform="translate(-191.783 -370.568)" fill="#3c8e36"/>
    </g>
    <g id="Group_1766" data-name="Group 1766" transform="translate(254.943 374.907)">
      <path id="Path_2689" data-name="Path 2689" d="M286.817,384.261a12.921,12.921,0,0,0-2.783.18l-.411-.954c1.6.129,3.4.155,3.659.155h6.211c0-1.134-.13-4.433-.233-5.231a14.536,14.536,0,0,0-.31-1.6l2.913.773c.258.051.438.1.438.361,0,.283-.412.514-.85.773,0,.773-.026,4.226-.026,4.922h6.056l1.34-1.547c.1-.154.257-.334.387-.334a.755.755,0,0,1,.49.283l1.725,1.5c.156.154.309.283.309.438,0,.258-.232.285-.413.285h-9.328c1.932,3.942,3.634,6.236,6.366,8.014a16.314,16.314,0,0,0,4.82,2.191v.129a13.493,13.493,0,0,0-1.934.8,5.306,5.306,0,0,0-1.34,1.443c-1.572-.644-3.943-3.53-4.716-4.612a25.294,25.294,0,0,1-3.737-7.963h-.026c-.026,2.989-.026,4.715-.026,7.654,0,1.107.283,6.623.283,6.906,0,.671,0,1.676-1.34,1.676-1.134,0-1.108-.721-1.108-1.185,0-.413.31-5.207.31-6.65v-5.9a20.046,20.046,0,0,1-3.351,4.922,18.845,18.845,0,0,1-7.061,5.179l-.052-.1c2.139-1.932,7.036-6.778,9.509-12.5Z" transform="translate(-283.08 -376.709)" fill="#1a1818"/>
      <path id="Path_2690" data-name="Path 2690" d="M330.074,380.145a1.352,1.352,0,0,0,.206-.618c0-.465-.954-1.005-1.908-1.005a2.666,2.666,0,0,1,1.933-.877c1.237,0,2.5,1.031,2.5,1.649a1.431,1.431,0,0,1-.49.928,10.493,10.493,0,0,0-1.263,1.6c1.856-.67,2.061-.748,2.6-.953a2.839,2.839,0,0,1,.9-.207c.618,0,1.367.362,1.367,1.005,0,.49-.361.7-.774.851a30.278,30.278,0,0,1-5.386,1.16c-.85,1.211-2.577,3.478-2.757,3.969a9.25,9.25,0,0,1,2.912-.542,2.8,2.8,0,0,1,2.886,2.293c.592-.334,2.218-1.289,4.536-2.422.619-.309.749-.541.749-.825,0-.386-.258-.541-.877-.927a1.611,1.611,0,0,1,.67-.13c1.339,0,3.325.928,3.325,2.371,0,.644-.258.773-1.288,1.006a31.344,31.344,0,0,0-6.855,2.139,14.678,14.678,0,0,1,.206,2.628c0,1.546-.181,2.577-1,2.577-1.135,0-1.16-1.649-1.16-2.758,0-1,0-1.108-.026-1.442-1.16.721-3.505,2.473-3.505,3.89a1.627,1.627,0,0,0,.8,1.341,6.686,6.686,0,0,0,3.3.644,25.816,25.816,0,0,0,3.968-.413,4.222,4.222,0,0,1,.927-.1,1.408,1.408,0,0,1,1.6,1.313,1.129,1.129,0,0,1-.875,1.005,28.757,28.757,0,0,1-3.917.259c-1.34,0-4.484-.155-5.876-1.238a2.753,2.753,0,0,1-1.082-2.088,4.169,4.169,0,0,1,.9-2.422A17.644,17.644,0,0,1,331,390.557c-.206-1.367-.49-2.681-2.061-2.681s-2.6,1.469-3.118,2.371c-.619.927-.953,2.061-1.83,2.061-.671,0-.876-.309-.876-1.134a2.605,2.605,0,0,1,.541-1.8,19.425,19.425,0,0,0,4.329-5.438,18.21,18.21,0,0,1-1.984.155c-2.344,0-2.654-1.753-2.654-2.088a1.448,1.448,0,0,1,.077-.464,3.16,3.16,0,0,0,2.707,1.057,16.44,16.44,0,0,0,2.783-.284C329.378,381.459,329.738,380.79,330.074,380.145Z" transform="translate(-294.631 -376.949)" fill="#1a1818"/>
      <path id="Path_2691" data-name="Path 2691" d="M356.926,383.548a12.937,12.937,0,0,0-2.783.181l-.438-.954c1.674.154,3.582.154,3.685.154,0-.591-.026-3.195-.053-3.711a8.594,8.594,0,0,0-.516-2.474l2.835.955c.258.078.594.18.594.489,0,.285-.233.438-.722.825a33.961,33.961,0,0,0-.179,3.917h.617l.723-1.21c.1-.155.258-.31.386-.31a.765.765,0,0,1,.49.259l1.185,1.133c.181.18.309.309.309.464,0,.258-.207.283-.387.283h-3.323v2.036a4.307,4.307,0,0,1,1.906,1.083c.953.773,1.366,1.365,1.366,2.112,0,.671-.361,1.211-.954,1.211-1.082,0-1.34-1.108-1.444-1.442-.179-.568-.282-2.294-.848-2.758,0,3.041.024,5.335.024,7.139,0,1.339.1,5.668.1,6.211a1.156,1.156,0,0,1-1.264,1.21c-1.006,0-1.006-.541-1.006-.953,0-.644.233-4.922.233-5.978v-3.557a16.2,16.2,0,0,1-4.2,5.181l-.08-.155a32.515,32.515,0,0,0,4.227-11.34Zm16.649,14.535,1.21-1.367c.129-.154.233-.334.413-.334a.772.772,0,0,1,.462.283l1.394,1.314c.129.129.283.283.283.438,0,.258-.231.284-.386.284H365.1c0,1.237,0,1.778-1.212,1.778-1,0-.928-.334-.928-1.03.026-3.042.078-9.691.078-12.448,0-.361-.154-.979-.387-2.448l2.63.9c.207.078.488.154.488.412,0,.438-.514.7-.772.953.1,3.582.1,8.917.1,11.262Zm-1.521-14.638.721-.773a.7.7,0,0,1,.487-.284.882.882,0,0,1,.544.258l.953.773a.7.7,0,0,1,.361.566c0,.335-.516.567-.669.7a21.447,21.447,0,0,0,0,2.268c0,.7.1,2.835.1,6.65,0,.309.052,1,.052,1.261,0,.955-.953,1.032-1.185,1.032a.867.867,0,0,1-.929-.928h-4.02c.026.283.026,1.495-1.133,1.495-.283,0-.979-.051-.979-.7,0-1.727.181-5.232.181-6,0-1.16.025-2.216.025-3.272a14.3,14.3,0,0,0-.282-3.2c-.078-.439-.13-.748-.157-1.057l2.475,1.211v-2.5h-2.656a12.741,12.741,0,0,0-2.783.181l-.438-.953c1.6.154,3.427.154,3.684.154H368.6a11.2,11.2,0,0,0-.647-3.66l2.889.9c.462.129.643.206.643.462,0,.233-.155.361-1,1.185v1.109h2.861l.928-1.289c.129-.18.282-.309.412-.309a.851.851,0,0,1,.465.258l1.261,1.237c.157.154.31.284.31.438,0,.258-.231.283-.413.283h-5.823v2.5Zm-3.608.619v2.989h4.044v-2.989Zm0,3.608v3.015h4.044v-3.015Zm0,3.634v3.041h4.044v-3.041Z" transform="translate(-303.307 -376.667)" fill="#1a1818"/>
      <path id="Path_2692" data-name="Path 2692" d="M397.1,386.569a24.017,24.017,0,0,0,5.643-1.545,12.913,12.913,0,0,1,1.493-.516c.285,0,2.27.721,2.27,1.778,0,.566-.257.721-.876,1.16-.311.18-4.715,3.17-6.159,5.257a6.55,6.55,0,0,1,1.39-.181c2.142,0,2.527,1.728,2.733,2.706.517,2.268.8,2.5,2.321,2.5a10.2,10.2,0,0,0,2.781-.465,6.072,6.072,0,0,1,1.519-.282c.775,0,1.651.49,1.651,1.314,0,.953-1.185,1.187-2.5,1.187-5.051,0-6.006-.465-6.752-1.392-.541-.67-.619-1.264-.878-2.964-.153-.979-.514-1.8-1.8-1.8-.953,0-1.518.593-3.633,3.866-1.34,2.088-1.728,2.474-2.344,2.474a1.111,1.111,0,0,1-1.057-1.238c0-1.056.593-1.546,1.5-2.292a44.315,44.315,0,0,0,5.257-5.464c.465-.541,2.292-2.63,3.786-4.073a.513.513,0,0,0,.182-.335c0-.154-.129-.206-.259-.206-.746,0-4.508,1.932-4.689,2.062-.671.541-.85.7-1.314.7a1.635,1.635,0,0,1-.953-.334c-1.187-.773-1.418-1.264-1.418-1.882a3.322,3.322,0,0,1,.31-1.211C395.887,386.157,396.2,386.569,397.1,386.569Zm2.113-4.226q.85-.58,1.7-1.237a.77.77,0,0,0,.283-.514c0-.336-.1-.387-.927-.955-1.471-1.03-1.78-1.392-1.856-2.861a8.934,8.934,0,0,0,3.864,2.114,4.687,4.687,0,0,1,2.6,1.572,1.713,1.713,0,0,1,.386,1.005c0,.412-.233.9-.671.9a6.335,6.335,0,0,1-1.133-.233,5.53,5.53,0,0,0-1.341-.233,7.457,7.457,0,0,0-2.344.49,3.952,3.952,0,0,0-.438.129Z" transform="translate(-314.764 -376.698)" fill="#1a1818"/>
      <path id="Path_2693" data-name="Path 2693" d="M424.635,384.244a7.807,7.807,0,0,0,1.083-.129c5.257-1.237,5.9-1.366,11.649-2.731.257-.051,1.314-.413,1.545-.49a4.5,4.5,0,0,1,1.057-.206c1.211,0,2.4.773,2.4,1.572,0,.953-.746.953-1.906.953a16.149,16.149,0,0,0-4.534.387c-2.732.8-5.594,4.227-5.594,7.989,0,1.392.619,3.918,4.073,4.949.539.154,1.907.438,2.6.566.953.206,1.78.773,1.78,1.65,0,1-.8,1-1.289,1a11.609,11.609,0,0,1-6.417-2.524,6.4,6.4,0,0,1-2.088-5.052,8.552,8.552,0,0,1,1.467-4.9,32.859,32.859,0,0,1,3.739-3.918,6.588,6.588,0,0,0-2.371.464,44.769,44.769,0,0,0-6.779,2.68,2.253,2.253,0,0,1-1,.283,2.53,2.53,0,0,1-1.442-4.072C423.139,383.884,423.759,384.244,424.635,384.244Z" transform="translate(-323.169 -377.827)" fill="#1a1818"/>
      <path id="Path_2694" data-name="Path 2694" d="M467.332,388.961c-.36.927-2.112,5.256-2.628,6.417a2.026,2.026,0,0,0-.284.953c0,.258.233,1.34.233,1.572a1.009,1.009,0,0,1-.98,1.134c-1.623,0-4.509-2.707-5-7.551-.129-1.34-.157-2.81-.181-3.53a8.823,8.823,0,0,0-1.133-4.587c1.262.077,3.581.927,3.581,3.091a2.28,2.28,0,0,1-.077.618,37.048,37.048,0,0,0-.517,4.176c0,2.653,1.523,4.3,2.064,4.3.2,0,.386-.2.617-.541,1.392-2.035,3.866-5.591,4.125-6.133Zm5.232,3.349c.31,0,1.829-.077,2.036-.1a.678.678,0,0,0,.669-.722,8.016,8.016,0,0,0-1.39-3.376,11.8,11.8,0,0,0-2.938-2.886c2.627-.31,6.931,3.324,6.931,7.473,0,1.185-.566,2.139-1.133,2.139-.465,0-.825-.438-1.547-1.263a4.883,4.883,0,0,0-2.629-1.109Z" transform="translate(-333.361 -378.601)" fill="#1a1818"/>
      <path id="Path_2695" data-name="Path 2695" d="M500.083,380.822c0-.979-.128-1.547-2.037-2.087a1.87,1.87,0,0,1,1.625-.8c.978,0,3.015.618,3.015,1.881,0,.231-.053.334-.439,1.314a6.915,6.915,0,0,0-.386,1.288,20.816,20.816,0,0,0,2.164-.618,22.456,22.456,0,0,1,2.218-.748c.719,0,1.777.515,1.777,1.211a.665.665,0,0,1-.463.67c-.747.31-4.613,1.057-5.9,1.314-.076.9-.076,1.7-.076,3.35a26.477,26.477,0,0,0,2.732-.85,1.888,1.888,0,0,1,.7-.155c.514,0,1.674.259,1.674,1.057a.649.649,0,0,1-.515.643c-.282.1-2.372.593-4.561,1.032a17.618,17.618,0,0,0,.773,5.437,8.444,8.444,0,0,1,4.408,1.727,1.928,1.928,0,0,1,.953,1.572c0,.541-.285,1.133-.928,1.133-.465,0-.747-.206-1.651-.9a17.441,17.441,0,0,0-2.7-1.572,3.306,3.306,0,0,1-2.318,2.963,7.984,7.984,0,0,1-2.321.361c-2.68,0-4.562-1.443-4.562-2.887a2.357,2.357,0,0,1,1.289-2.009,8.712,8.712,0,0,1,4.226-.851,13.4,13.4,0,0,1,1.549.077,22.185,22.185,0,0,1-.413-4.767,23.978,23.978,0,0,1-3.042.207c-2.138,0-3.195-.337-3.195-1.315,0-.8,1.16-1.624,2.061-1.6-.335.464-.465.644-.465.979,0,.181,0,.386.827.386a26.448,26.448,0,0,0,3.787-.309c0-1.34.027-1.624.079-3.454a24.882,24.882,0,0,1-3.686.284c-3.041,0-3.712-.515-4.562-2.319a8.045,8.045,0,0,0,3.763.824,30.954,30.954,0,0,0,4.561-.463C500.031,382.574,500.083,380.926,500.083,380.822ZM497.4,395.77c-1.289,0-3.271.54-3.271,1.469,0,.334.539,1.159,2.628,1.159a6.173,6.173,0,0,0,2.705-.593,1.972,1.972,0,0,0,.852-1.727A9.939,9.939,0,0,0,497.4,395.77Z" transform="translate(-343.271 -377.033)" fill="#1a1818"/>
      <path id="Path_2696" data-name="Path 2696" d="M526.232,400.734a10.946,10.946,0,0,0,3.737-3.711,7.779,7.779,0,0,0,1.547-3.737c-.7.722-1.109,1.161-1.778,1.161-1.6,0-2.861-1.8-2.861-3.918,0-1.881,1.081-4.123,2.911-4.123a5.9,5.9,0,0,1,1.47.258,17.98,17.98,0,0,0-.052-2.525c-1.34.18-5.85.953-7.935,2.216-.852.541-.956.593-1.29.593-1.057,0-2.191-1.676-2.191-2.861a1.229,1.229,0,0,1,.311-.85,2.393,2.393,0,0,0,1.828,1.185,13.106,13.106,0,0,0,1.522-.181c5.075-.9,5.616-1,7.7-1.237-.025-.386-.129-2.035-.156-2.371-.154-1.649-.9-1.985-2.369-2.448a2.493,2.493,0,0,1,1.778-.722c.851,0,2.808.722,2.808,1.547,0,.078-.231,1.005-.257,1.133a17.013,17.013,0,0,0-.412,2.681c2.061-.232,4.587-.541,6.184-.773a3.777,3.777,0,0,1,.8-.077c.827,0,2.45.489,2.45,1.469a.9.9,0,0,1-1,.876,4.71,4.71,0,0,1-.7-.052,35.461,35.461,0,0,0-4.9-.464c-.541,0-1.545.026-2.938.155-.027.335-.052.8-.052,1.494a10.637,10.637,0,0,0,.13,1.805,8.129,8.129,0,0,1,1.365,4.535c0,3.788-2.706,7.629-7.55,9.122Zm1.624-10.592c0,1.316.825,2.526,1.779,2.526.927,0,1.726-1.159,1.726-2.577s-.748-2.4-1.856-2.4C528.681,387.7,527.855,388.675,527.855,390.142Z" transform="translate(-351.373 -376.897)" fill="#1a1818"/>
    </g>
    <g id="Group_1767" data-name="Group 1767" transform="translate(257.413 412.901)">
      <path id="Path_2697" data-name="Path 2697" d="M288.85,431.762c-.991.06-1.392.083-1.948.072l-.229-1.138a19.1,19.1,0,0,0,4.937-.557l.508,1.187a12.4,12.4,0,0,1-2.033.327v1.572h1.888V434.4h-1.888v.1a10.712,10.712,0,0,0,1.888,2.106l-.689,1.186a9.142,9.142,0,0,1-1.174-1.683h-.024v5.338H288.85v-5.059h-.023a9.2,9.2,0,0,1-1.755,2.7l-.519-1.415a10.1,10.1,0,0,0,2.214-3.269h-2.01v-1.174h2.094Zm5.81-1.609a57.215,57.215,0,0,1-1.634,9.414c.545-.06,2.3-.29,3.425-.5a25.071,25.071,0,0,0-.957-3.547l1.235-.337a28.747,28.747,0,0,1,1.5,5.928l-1.392.328c-.06-.472-.1-.678-.181-1.235-.775.158-2.808.545-5.591.847l-.243-1.282c.315-.025.533-.025.943-.061a74.671,74.671,0,0,0,1.489-9.646Z" transform="translate(-286.552 -430.067)" fill="#1a1818"/>
      <path id="Path_2698" data-name="Path 2698" d="M312.759,430.848l-.193,1.488h3.159v1.234h-3.353a37.908,37.908,0,0,1-1.972,7.577l-1.283-.472a32.629,32.629,0,0,0,1.961-7.1h-1.682v-1.234h1.839c.073-.618.109-1,.145-1.536Zm2.493,6.546a2.063,2.063,0,0,0-.763,1.416c0,1.04,1.695,1.04,2.421,1.04a22.624,22.624,0,0,0,2.564-.12l-.011,1.306a18.53,18.53,0,0,1-2.093.061c-1.295,0-4.127,0-4.127-2.251a3.193,3.193,0,0,1,1.029-2.154Zm4.09-2.251c-.314-.024-.63-.036-1.113-.036a9.963,9.963,0,0,0-3.631.556l-.411-1.113a11.417,11.417,0,0,1,5.155-.739Z" transform="translate(-293.062 -430.278)" fill="#1a1818"/>
      <path id="Path_2699" data-name="Path 2699" d="M332.942,430.761c-.023.531-.023.8-.072,1.512h6.051v1.234h-6.149a15.279,15.279,0,0,1-.362,2.082,5.672,5.672,0,0,1,2.929-.812,3.124,3.124,0,0,1,3.437,3.088c0,3.17-3.849,3.254-6.427,3.254-.593,0-.9-.011-1.234-.036l-.157-1.271c.351.023.617.038,1.295.038,2.614,0,5.1-.063,5.1-2.095,0-1.029-.738-1.707-2.105-1.707a4.663,4.663,0,0,0-3.207,1.258l-.085.437-1.367-.278a15.316,15.316,0,0,0,.847-3.958h-2.505v-1.234H331.5c.023-.593.023-.956.012-1.525Z" transform="translate(-298.777 -430.263)" fill="#1a1818"/>
      <path id="Path_2700" data-name="Path 2700" d="M352.732,430.973a22.242,22.242,0,0,0-.5,4.914,25.4,25.4,0,0,0,.423,4.985l-1.366.183a33.2,33.2,0,0,1-.376-5.241,27.515,27.515,0,0,1,.413-5Zm4.453,1.875v-2.033h1.3v2.033h2.3v1.259h-2.263l.048,3.11a10.5,10.5,0,0,1,2.542,1.816l-.882,1.161a12.067,12.067,0,0,0-1.671-1.537v.121c0,1.077-.241,2.251-2.408,2.251-2.457,0-2.711-1.621-2.711-2.118a2.456,2.456,0,0,1,2.723-2.262,4.376,4.376,0,0,1,1.09.132l-.061-2.674h-3.619v-1.259Zm.086,5.168a2.359,2.359,0,0,0-1.042-.218c-.933,0-1.525.448-1.525,1.078,0,.326.181.979,1.4.979,1.163,0,1.163-.507,1.163-1.015Z" transform="translate(-305.122 -430.283)" fill="#1a1818"/>
      <path id="Path_2701" data-name="Path 2701" d="M377.681,441.274h-1.439v-5.481a18.218,18.218,0,0,1-4.478,2.117l-.691-1.161a17.7,17.7,0,0,0,8.737-5.966l1.308.8a28.783,28.783,0,0,1-3.437,3.195Z" transform="translate(-310.937 -430.273)" fill="#1a1818"/>
      <path id="Path_2702" data-name="Path 2702" d="M390.452,438.936a14.3,14.3,0,0,0,5.881-4.949h-5.372v-1.3h5.712v-1.96h1.321v1.96h3.025v1.3h-3.025v5.675c0,1.453-1.079,1.453-2.094,1.453-.594,0-.969-.024-1.344-.048l-.157-1.318c.509.035,1.163.072,1.717.072.159,0,.557,0,.557-.472v-3.789h-.021a16.193,16.193,0,0,1-5.363,4.479Z" transform="translate(-316.528 -430.258)" fill="#1a1818"/>
      <path id="Path_2703" data-name="Path 2703" d="M415.333,434.716a13.469,13.469,0,0,0-3.654-1.779l.656-1.187a13.166,13.166,0,0,1,3.75,1.658Zm-3.531,5c4.21-.3,7.054-1.754,8.834-7.212l1.369.617c-1.829,5.289-4.467,7.454-9.756,8.121Z" transform="translate(-322.652 -430.553)" fill="#1a1818"/>
      <path id="Path_2704" data-name="Path 2704" d="M441.927,431.616v1.367a9.484,9.484,0,0,0-1.224-.06c-2.348,0-5.375,2.432-5.375,4.647,0,2.191,3.451,2.336,5.434,2.336l-.107,1.392a10.678,10.678,0,0,1-5-.969,3.082,3.082,0,0,1-1.681-2.674c0-1.718,1.053-3.4,3.328-4.708l-.026-.023c-4.586.12-5,.157-5.7.217l-.023-1.391c.48.012,3.944-.049,5.348-.073Zm-2.3,4.864a11.769,11.769,0,0,0-1.078-1.79l.845-.448a8.176,8.176,0,0,1,1.127,1.743Zm1.55-.738a14.386,14.386,0,0,0-1.1-1.683l.894-.46a9.113,9.113,0,0,1,1.079,1.61Z" transform="translate(-328.387 -430.514)" fill="#1a1818"/>
      <path id="Path_2705" data-name="Path 2705" d="M457.879,430.731h1.4v1.306h3.448v1.247h-3.448v2.566a5.988,5.988,0,0,1,.2,1.538c0,3.557-2.883,3.787-4.913,3.908l-.426-1.283c2.879-.06,3.619-.581,3.908-1.549l-.024-.024a1.59,1.59,0,0,1-1.3.484,2.5,2.5,0,1,1,1.233-4.708l-.023-.932h-5.785v-1.247H457.9Zm.122,5.53a1.086,1.086,0,0,0-1.224-1.125,1.259,1.259,0,1,0-.037,2.517A1.143,1.143,0,0,0,458,436.492Z" transform="translate(-334.326 -430.258)" fill="#1a1818"/>
    </g>
  </g>
</svg>
