<svg xmlns="http://www.w3.org/2000/svg" xmlns:xlink="http://www.w3.org/1999/xlink" width="31" height="41" viewBox="0 0 31 41">
  <defs>
    <clipPath id="clip-path">
      <rect id="Rectangle_1080" data-name="Rectangle 1080" width="31" height="41" transform="translate(-0.377 0)" fill="none" stroke="#7791be" stroke-width="1.5"/>
    </clipPath>
  </defs>
  <g id="Group_2004" data-name="Group 2004" transform="translate(0.377 0.233)">
    <g id="Group_2003" data-name="Group 2003" transform="translate(0 -0.233)" clip-path="url(#clip-path)">
      <path id="Path_2885" data-name="Path 2885" d="M18.859,9.069H6.913L3.5.536c1.707,0,3.413,0,5.12,1.707C9.384,1.268,10.326.536,12.886.5c2.56.036,3.429.561,4.266,1.742C18.859.536,20.566.536,22.273.536Z" transform="translate(2.473 0.592)" fill="none" stroke="#7791be" stroke-width="1.5"/>
      <path id="Path_2886" data-name="Path 2886" d="M20.979,5.521H9.033C5.62,8.934.5,14.928.5,20.88A15.346,15.346,0,0,0,15.006,36.2,15.346,15.346,0,0,0,29.512,20.88C29.512,14.928,24.392,8.934,20.979,5.521Z" transform="translate(0.353 4.14)" fill="none" stroke="#7791be" stroke-width="1.5"/>
      <path id="Path_2887" data-name="Path 2887" d="M15.2,9.621,10.814,16.3,6.432,9.621" transform="translate(4.545 7.037)" fill="none" stroke="#7791be" stroke-linecap="round" stroke-linejoin="round" stroke-width="1.5"/>
      <line id="Line_702" data-name="Line 702" y2="8.944" transform="translate(15.359 23.333)" fill="none" stroke="#7791be" stroke-linecap="round" stroke-linejoin="round" stroke-width="1.5"/>
      <line id="Line_703" data-name="Line 703" x2="5.562" transform="translate(12.578 25.63)" fill="none" stroke="#7791be" stroke-linecap="round" stroke-linejoin="round" stroke-width="1.5"/>
      <line id="Line_704" data-name="Line 704" x2="5.562" transform="translate(12.578 28.706)" fill="none" stroke="#7791be" stroke-linecap="round" stroke-linejoin="round" stroke-width="1.5"/>
    </g>
  </g>
</svg>
