<svg xmlns="http://www.w3.org/2000/svg" width="41" height="41" viewBox="0 0 41 41">
  <g id="Group_2271" data-name="Group 2271" transform="translate(-499 -538)">
    <circle id="Ellipse_77" data-name="Ellipse 77" cx="20.5" cy="20.5" r="20.5" transform="translate(499 538)" fill="#fff"/>
    <path id="Path_3138" data-name="Path 3138" d="M4.668.608A5.248,5.248,0,0,0,.629,4.587,5.193,5.193,0,0,0,1.57,8.894H1.549L10.2,18.981a1.049,1.049,0,0,0,1.593,0L20.435,8.894h-.021a5.193,5.193,0,0,0,.941-4.306A5.246,5.246,0,0,0,10.992,5.746,5.253,5.253,0,0,0,4.668.608Z" transform="translate(509 549.576)" fill="none" stroke="#6b6d70" stroke-linecap="round" stroke-linejoin="round" stroke-width="1.5"/>
  </g>
</svg>
