<svg id="Logo" xmlns="http://www.w3.org/2000/svg" xmlns:xlink="http://www.w3.org/1999/xlink" width="252" height="111.507" viewBox="0 0 252 111.507">
  <defs>
    <clipPath id="clip-path">
      <rect id="Rectangle_1066" data-name="Rectangle 1066" width="252" height="111.507" fill="none"/>
    </clipPath>
  </defs>
  <g id="Group_1977" data-name="Group 1977" clip-path="url(#clip-path)">
    <path id="Path_2838" data-name="Path 2838" d="M84.924,27.465a21.694,21.694,0,0,0,2.011-1.3q.946-.648,2.248-1.715t2.837-2.541q1.54-1.422,3.281-3.312l3.815-4.138q1-1.184,1.951-2.335t1.951-2.514q1.006-1.359,1.952-2.78a15.742,15.742,0,0,0,1.6-3.132,4.193,4.193,0,0,0,.264-1.568.935.935,0,0,0-.855-.917A3.519,3.519,0,0,0,104.289,1q-.976.088-1.863.206-1.952.473-3.843,1.125T94.739,3.812q-3.9,1.6-7.833,3.547a87.02,87.02,0,0,0-7.777,4.377q-1.95,1.241-3.783,2.662a28.553,28.553,0,0,0-3.431,3.132,14.546,14.546,0,0,0-2.66,3.666,11.418,11.418,0,0,0-1.243,4.377,11.206,11.206,0,0,0,.563,4.492A23.813,23.813,0,0,0,70.5,34.323a34.725,34.725,0,0,0,2.6,4.02q1.419,1.895,2.955,3.786,3.194,3.724,6.564,7.243T89.3,56.437l1.123,1.123c.157-.157.306-.3.443-.414s.288-.235.445-.354q2.305-1.952,4.346-3.489t3.814-2.78q1.775-1.359,3.165-2.275a17.56,17.56,0,0,0,2.277-1.745,17.065,17.065,0,0,0,1.3-1.123,4.832,4.832,0,0,1,.474-.416,1.293,1.293,0,0,1,.948-.3,1.4,1.4,0,0,1,.828.416,1.208,1.208,0,0,1,.354.886,1.072,1.072,0,0,1-.474.886.174.174,0,0,0-.117.06.9.9,0,0,1-.237.177c-.159.08-.337.159-.532.237s-.423.168-.68.266a7.357,7.357,0,0,0-.917.443q-1.006.533-2.454,1.36t-3.221,2.071Q98.4,52.653,96.336,54.16t-4.317,3.46l-.886.709q1.241,1.241,2.394,2.572T95.8,63.65a22.436,22.436,0,0,1,2.632,4.257,13.641,13.641,0,0,1,1.271,4.968,11.3,11.3,0,0,1-.326,2.691,5.868,5.868,0,0,1-1.212,2.4,9.07,9.07,0,0,1-4.02,3.074,12.57,12.57,0,0,1-4.7.859,13.857,13.857,0,0,1-4.641-.859,7.508,7.508,0,0,1-3.666-2.6,8.738,8.738,0,0,1-1.183-1.98,4.191,4.191,0,0,1-.354-2.158,9.049,9.049,0,0,1,.68-4.138,25.522,25.522,0,0,1,1.8-3.431A31.392,31.392,0,0,1,85.1,62.675a40.988,40.988,0,0,1,3.312-3.341l-1.006-1.123Q84.1,54.664,80.873,51t-6.355-7.569q-1.54-1.95-2.957-3.99a39.969,39.969,0,0,1-2.6-4.288,26.587,26.587,0,0,1-1.923-4.67,12.309,12.309,0,0,1-.443-5.026,12.684,12.684,0,0,1,1.539-4.818A17.828,17.828,0,0,1,71.088,16.7a36.142,36.142,0,0,1,3.547-3.221A45.12,45.12,0,0,1,78.42,10.79q4.02-2.425,8.041-4.375t7.924-3.547q1.95-.711,3.9-1.42a36.818,36.818,0,0,1,3.9-1.183q1.064-.118,2.069-.235a4.77,4.77,0,0,1,2.071.235,3.813,3.813,0,0,1,.532.266c.157.1.334.208.532.326a2.312,2.312,0,0,0,.3.532.872.872,0,0,1,.177.53,2.786,2.786,0,0,1,0,1.154q-.118.5-.235.975a16.915,16.915,0,0,1-1.686,3.371q-.976,1.479-1.982,2.9-1.95,2.661-3.9,4.968t-3.753,4.2q-1.8,1.892-3.223,3.489-1.479,1.6-2.572,2.9t-1.8,2.246q-.829,1.066-1.418,1.951a1.685,1.685,0,0,1-1.154.742,2.147,2.147,0,0,1-1.331-.268,1.67,1.67,0,0,1-.738-1.154,2.154,2.154,0,0,1,.264-1.329,3.455,3.455,0,0,0,.3-.326,1.3,1.3,0,0,1,.3-.264M83.15,67.316a22.652,22.652,0,0,0-1.539,3.252,7.938,7.938,0,0,0-.472,3.608,3.64,3.64,0,0,0,.385,1.655,7.607,7.607,0,0,0,.915,1.418,10.243,10.243,0,0,0,1.422,1.183,6.486,6.486,0,0,0,1.655.828A12.21,12.21,0,0,0,93.2,78.9a7.51,7.51,0,0,0,2.838-2.363,4.547,4.547,0,0,0,.68-1.686c.1-.572.186-1.194.266-1.863a10.988,10.988,0,0,0-.917-3.369,22.161,22.161,0,0,0-1.8-3.254,33.733,33.733,0,0,0-2.4-3.163q-1.329-1.567-2.749-3.1a41.88,41.88,0,0,0-3.1,3.341,41.429,41.429,0,0,0-2.868,3.872" transform="translate(54.735 0)" fill="#96999c"/>
    <path id="Path_2839" data-name="Path 2839" d="M89.874,30.1a5.325,5.325,0,0,0-.118,1.152v2.4c.078.2.137.354.179.472a1.581,1.581,0,0,1,.058.472,5.6,5.6,0,0,0,.975,1.746,3.66,3.66,0,0,0,1.626,1.092,4.244,4.244,0,0,0,1.951.268,10.459,10.459,0,0,0,2.071-.385,14.7,14.7,0,0,0,3.843-1.921,38.5,38.5,0,0,0,3.134-2.456,25.986,25.986,0,0,0,2.335-2.394c.653-.769,1.212-1.427,1.686-1.982a7.673,7.673,0,0,1,.532-.767,5.278,5.278,0,0,0,.412-.592,1.56,1.56,0,0,0,.355-.532h.118a.105.105,0,0,1,.118-.118.344.344,0,0,1,.237.118.222.222,0,0,1,0,.355,6.131,6.131,0,0,1-.355.532c-.118.2-.237.394-.354.591s-.277.454-.474.769a49.845,49.845,0,0,1-3.784,4.847q-1.359,1.362-3.075,2.78a16.08,16.08,0,0,1-4.138,2.425,23.114,23.114,0,0,1-2.483.591,5.982,5.982,0,0,1-2.838-.237A4.876,4.876,0,0,1,89.4,37.781a6.04,6.04,0,0,1-1.42-2.6A5.477,5.477,0,0,1,87.6,33.79a9.631,9.631,0,0,1-.087-1.212c0-.552.007-1.034.029-1.449a5.893,5.893,0,0,1,.206-1.271,11.27,11.27,0,0,1,1.774-4.849A10.992,10.992,0,0,1,92.95,21.58a6.956,6.956,0,0,1,1.152-.5,2.731,2.731,0,0,1,1.331-.088,1.294,1.294,0,0,1,.828.472.73.73,0,0,1,.177.324,1.324,1.324,0,0,0,.179.385,2.625,2.625,0,0,1-.237,1.181,7.7,7.7,0,0,1-1.921,3.077,10.871,10.871,0,0,1-2.219,1.655,3.425,3.425,0,0,1-.886.5,6.968,6.968,0,0,0-.769.326l-.591.177c-.04.2-.069.365-.089.5a3.56,3.56,0,0,0-.029.5m2.011-2.838a3.817,3.817,0,0,0,.946-.532,6.687,6.687,0,0,0,.946-.888,5.793,5.793,0,0,0,.946-1.272,5.911,5.911,0,0,0,.591-1.447,1.677,1.677,0,0,0,.118-.74.269.269,0,0,0-.237-.088.794.794,0,0,0-.68.088,4.459,4.459,0,0,0-.738.5,7.091,7.091,0,0,0-2.6,3.074l-.707,1.6a3.554,3.554,0,0,0,1.418-.3" transform="translate(72.017 17.238)" fill="#96999c"/>
    <path id="Path_2840" data-name="Path 2840" d="M101.617,22.086c-.354,1.145-.673,2.317-.948,3.518a28.229,28.229,0,0,0-.589,3.7,27.1,27.1,0,0,0-.355,4.258l.944-1.892q.711-1.241,1.447-2.454a19.437,19.437,0,0,1,1.745-2.4q.476-.533,1.006-1.123a2.8,2.8,0,0,1,1.717-.769,1.883,1.883,0,0,1,1.121.118,2.172,2.172,0,0,1,.886.591,2.485,2.485,0,0,1,.74.68,6.826,6.826,0,0,1,.447.74,8.622,8.622,0,0,1,.558,1.418c.139.474.27.946.385,1.418l.122.711.232.591.357,1.418a.638.638,0,0,0,.175.5,1.053,1.053,0,0,1,.3.443c.077.2.148.374.206.532a1.17,1.17,0,0,0,.266.414,3.275,3.275,0,0,0,1.776.946,2.394,2.394,0,0,0,1.121-.031c.4-.1.767-.206,1.123-.324a11.01,11.01,0,0,0,1.241-.414c.394-.157.808-.334,1.245-.532a27.11,27.11,0,0,0,4.342-3.194q2.045-1.832,3.934-3.9h.117a.405.405,0,0,1,.3-.118.394.394,0,0,1,.294.118.59.59,0,0,1,.12.709q-1.895,2.13-3.874,4.109a33.912,33.912,0,0,1-4.4,3.7c-.434.235-.859.472-1.271.709s-.859.472-1.333.709a7.356,7.356,0,0,1-1.506.443,9.1,9.1,0,0,1-1.686.148,7.81,7.81,0,0,1-1.684-.443,4.19,4.19,0,0,1-1.509-.975,3.659,3.659,0,0,1-.561-.709,5.005,5.005,0,0,0-.5-.711c-.115-.235-.246-.481-.383-.738a6.892,6.892,0,0,1-.326-.68l-.355-1.418-.233-.711-.12-.709-.709-2.364c-.2-.355-.355-.642-.474-.859a.943.943,0,0,0-.47-.443.954.954,0,0,0-.8.177,4.95,4.95,0,0,0-.973.769,16.616,16.616,0,0,0-1.6,2.127c-.474.749-.93,1.539-1.36,2.366s-.818,1.655-1.156,2.483-.66,1.7-.973,2.6a.939.939,0,0,1-.416.532.74.74,0,0,1-.649.06,1.33,1.33,0,0,1-.592-.709v-.118a44.374,44.374,0,0,1-.355-7.923q.118-2.07.355-4.021a40.094,40.094,0,0,1,.709-4.021,1.579,1.579,0,0,1,.709-.857,1.415,1.415,0,0,1,1.065-.208,1.483,1.483,0,0,1,.95.709,1.292,1.292,0,0,1,.117,1.065Z" transform="translate(80.378 16.495)" fill="#96999c"/>
    <path id="Path_2841" data-name="Path 2841" d="M116.051,23.537q-.238,1.066-.474,2.246c-.117.673-.244,1.449-.385,2.337s-.244,1.8-.323,2.751c-.12.906-.208,1.8-.268,2.689s-.108,1.686-.148,2.4Q114.4,37.2,114.4,38.32a.732.732,0,0,1-.828.829.86.86,0,0,1-.591-.21.638.638,0,0,1-.237-.5q-.12-1.121-.179-2.425-.057-1.064-.089-2.454t.031-2.809q.118-1.477.206-2.868c.058-.926.129-1.763.206-2.512q.12-1.3.3-2.425a1.683,1.683,0,0,1,.56-.917,1.246,1.246,0,0,1,1.1-.266,1.676,1.676,0,0,1,.915.561,1.251,1.251,0,0,1,.266,1.1ZM114.4,18.453V18.1a.679.679,0,0,1,.058-.3,3.092,3.092,0,0,1,.179-.3.807.807,0,0,1,.591-.233h.354a1.339,1.339,0,0,1,1.183,1.181v.354a.681.681,0,0,1-.235.474l-.474.354H115.7a1.388,1.388,0,0,1-1.3-1.181" transform="translate(92.552 14.214)" fill="#96999c"/>
    <path id="Path_2842" data-name="Path 2842" d="M129.146,28.941a15.057,15.057,0,0,0,3.28-.859c.928-.376,1.725-.68,2.4-.919l2.127-1.063q.413-.235.589.12a.593.593,0,0,1-.117.709,1.892,1.892,0,0,0-.592.233c-.2.082-.434.179-.711.3s-.589.255-.942.412a23.884,23.884,0,0,1-2.483.975,19.828,19.828,0,0,1-3.431.8q-.473.06-1,.086c-.354.022-.711.033-1.065.033l-.179.709a11.354,11.354,0,0,1-1.063,2.481,4.538,4.538,0,0,1-2.131,1.892,3.657,3.657,0,0,1-2.924-.146,4.479,4.479,0,0,1-2.042-1.863,4.635,4.635,0,0,1-.973-2.364,8.554,8.554,0,0,1,.027-2.366,10.471,10.471,0,0,1,.532-1.923,9.538,9.538,0,0,1,.886-1.741,10.931,10.931,0,0,1,1.241-1.185c.4-.315.769-.592,1.123-.828l.771-.354a2.6,2.6,0,0,1,1.6-.711,2.165,2.165,0,0,1,1.42.268,3.552,3.552,0,0,1,1.181,1.032,10.343,10.343,0,0,1,.591,1.274,7.08,7.08,0,0,1,.355,1.331,16.321,16.321,0,0,1,0,1.889A14.684,14.684,0,0,1,127.374,29a4.758,4.758,0,0,0,.886.033c.275-.02.569-.051.886-.089m-8.985-.357a4.537,4.537,0,0,0,.469,3.194,3.194,3.194,0,0,0,1.1,1.212,2.055,2.055,0,0,0,1.626.324,3.36,3.36,0,0,0,1.566-1.152,6.064,6.064,0,0,0,1.035-2.04l.117-.472a2.779,2.779,0,0,1-1.065-.357,4.489,4.489,0,0,1-2.067-1.329,5.5,5.5,0,0,1-1.245-2.219.908.908,0,0,1-.115-.412,6.992,6.992,0,0,0-.859,1.387,6.826,6.826,0,0,0-.56,1.863m4.373-5.2h-.117l-.355.118a4.43,4.43,0,0,0-.561.268c-.177.1-.425.244-.742.443l-.414.293a2.576,2.576,0,0,0,.177,1.006,5.886,5.886,0,0,0,1.035,1.892,3.717,3.717,0,0,0,1.688,1.181,3.625,3.625,0,0,0,.532.177c.157.044.334.082.532.122a12.976,12.976,0,0,0,.235-1.746,13.915,13.915,0,0,0,0-1.745,7.382,7.382,0,0,0-.445-1.657,2.206,2.206,0,0,0-.973-1.181.985.985,0,0,1-.592.828" transform="translate(96.957 17.564)" fill="#96999c"/>
    <path id="Path_2843" data-name="Path 2843" d="M130.066,20.664q-.355,2.305-.532,4.731t-.179,4.849v2.394c0,.809.02,1.606.06,2.4a41.158,41.158,0,0,1,1.951-5.263c.355-.789.74-1.575,1.154-2.366a21.775,21.775,0,0,1,1.449-2.364,14.141,14.141,0,0,1,1.772-2.129c.315-.314.642-.629.975-.944a5.506,5.506,0,0,1,1.154-.828,1.122,1.122,0,0,1,.591-.179.538.538,0,0,1,.474.3.6.6,0,0,1,.118.711v.117a7.454,7.454,0,0,0-.443,1.449,3.7,3.7,0,0,0-.031,1.389v.237a.333.333,0,0,0,.118.237.676.676,0,0,0,.179.206.957.957,0,0,1,.177.148.37.37,0,0,1,.206.06.481.481,0,0,0,.266.058.4.4,0,0,1,.355-.058.383.383,0,0,0,.354-.06,7.225,7.225,0,0,0,1.391-.5c.452-.215.9-.443,1.329-.68a7.347,7.347,0,0,0,1.333-.859,15.16,15.16,0,0,0,1.152-1.034l.118-.118a.92.92,0,1,1,1.3,1.3c-.157.159-.275.237-.354.237a10.983,10.983,0,0,0-1.537.68c-.474.259-.948.543-1.42.859-.472.235-.957.481-1.447.738a6.112,6.112,0,0,1-1.628.561,1.368,1.368,0,0,1-.472.118h-.474a2.256,2.256,0,0,1-.532-.058,4.242,4.242,0,0,1-.532-.179,1.267,1.267,0,0,1-.828-.709,5.2,5.2,0,0,1-.472-.946,5.539,5.539,0,0,1-.06-.8v-.738l-.412.354a12.328,12.328,0,0,0-1.539,1.892,19.187,19.187,0,0,0-2.483,4.494,36.643,36.643,0,0,0-2.838,9.935,1.5,1.5,0,0,1-.365.591.56.56,0,0,1-.605.118q-.73-.178-.729-.709-.544-4.968-.726-10.052,0-2.483.06-4.968a41.113,41.113,0,0,1,.428-4.966,1.614,1.614,0,0,1,.427-.769.794.794,0,0,1,.793-.179,1.075,1.075,0,0,1,.953,1.185Z" transform="translate(104.848 15.907)" fill="#96999c"/>
    <path id="Path_2844" data-name="Path 2844" d="M25.312,43.357C23,40.222,18.687,38.566,14.549,38.566a11.179,11.179,0,0,0-7.511,2.485c-4.14,3.786-2.9,8.752,1.6,11.59,5.793,3.608,19.81,6.269,19.81,16.439,0,7.866-6.623,11.651-13.01,11.709A20.35,20.35,0,0,1,0,73.813l.711-.592a18.979,18.979,0,0,0,14.37,6.209c5.381-.235,10.17-3.606,9.935-9.933-.237-7.157-12.834-10.23-18.333-13.129a9.888,9.888,0,0,1-5.677-8.515c0-6.978,6.564-10.528,12.832-10.528,4.612,0,9.4,1.832,12.064,5.383Z" transform="translate(0 30.717)" fill="#1a1818"/>
    <path id="Path_2845" data-name="Path 2845" d="M22.948,79.444,37.019,39.41l-2.3-1.245v-.354h4.849L54.348,79.444H50.564L46.6,67.912H28.271L24.248,79.444Zm5.677-12.536H46.247l-8.81-25.489Z" transform="translate(18.885 31.117)" fill="#1a1818"/>
    <path id="Path_2846" data-name="Path 2846" d="M47.534,37.812h6.151v40.51h21.17v1.123h-24.9V39.35l-2.425-1.006Z" transform="translate(39.119 31.117)" fill="#1a1818"/>
    <path id="Path_2847" data-name="Path 2847" d="M105.68,59c0,10.881-6.506,21.762-18.747,21.762C74.749,80.758,68.185,69.877,68.185,59s6.564-21.7,18.747-21.7c12.241,0,18.747,10.821,18.747,21.7m-3.963,0c0-10.467-4.968-20.935-14.784-20.935C77.174,38.06,72.208,48.528,72.208,59s4.966,20.993,14.724,20.993c9.817,0,14.784-10.528,14.784-20.993" transform="translate(56.113 30.691)" fill="#1a1818"/>
    <path id="Path_2848" data-name="Path 2848" d="M126.432,37.779V79.412H125.9L100.708,39.848V79.412h-1.3v-40.1l-2.366-1v-.532h6.92l21.17,33.353V37.779Z" transform="translate(79.86 31.091)" fill="#1a1818"/>
    <path id="Path_2849" data-name="Path 2849" d="M122.46,38.344v-.532h26.909v1.123H128.611V56.557h16.5V57.68h-16.5V78.321h20.758v1.123H124.826V39.35Z" transform="translate(100.779 31.117)" fill="#1a1818"/>
    <path id="Path_2850" data-name="Path 2850" d="M4.065,10.733a10.388,10.388,0,0,0-3.5-1.256l.241-.634a2.676,2.676,0,0,0,.689.175,15.78,15.78,0,0,1,2.917.939ZM1.4,13.719A7.448,7.448,0,0,0,8.459,8.81a2.026,2.026,0,0,0,.166-.58l.634.35a2.087,2.087,0,0,0-.241.5,7.839,7.839,0,0,1-6.725,5.323,5.116,5.116,0,0,0-.7.177l-.261-.864ZM4.973,8.394a8.347,8.347,0,0,0-3.334-1.63L1.9,6.154a4.8,4.8,0,0,0,.613.219A13.982,13.982,0,0,1,5.356,7.607Z" transform="translate(0.467 5.064)" fill="#1a1818"/>
    <path id="Path_2851" data-name="Path 2851" d="M16.406,13.032a2.409,2.409,0,0,0-.613-.077H8.032a2.481,2.481,0,0,0-.613.077v-.853a2.419,2.419,0,0,0,.613.077h7.762a2.409,2.409,0,0,0,.613-.077Zm-1.072-5.4a2.827,2.827,0,0,0-.613-.055H9.114a2.717,2.717,0,0,0-.613.055V6.856a3.253,3.253,0,0,0,.613.066h5.607a3.238,3.238,0,0,0,.613-.066Z" transform="translate(6.106 5.642)" fill="#1a1818"/>
    <path id="Path_2852" data-name="Path 2852" d="M15.112,7.058a3.742,3.742,0,0,0-.613.066V6.382a3.5,3.5,0,0,0,.613.064h8c-.241,2.745-1.542,4.122-4.308,4.594-.208,1.528-1.258,2.589-3.3,3.345a1.343,1.343,0,0,0-.459.217l-.283-.687a3.2,3.2,0,0,0,1.562-.591,3.151,3.151,0,0,0,1.748-2.8V8.863a3.347,3.347,0,0,0-.066-.613h.9a3.148,3.148,0,0,0-.066.613v1.6a3.775,3.775,0,0,0,3.4-3.4Z" transform="translate(11.932 5.252)" fill="#1a1818"/>
    <path id="Path_2853" data-name="Path 2853" d="M21.981,9.319a2.539,2.539,0,0,0-.611.075V8.663a2.71,2.71,0,0,0,.611.055h7.553c-.337,3.3-2.076,5.062-5.77,5.848a3.193,3.193,0,0,0-.549.164l-.259-.709a1.4,1.4,0,0,0,.171.009,5.843,5.843,0,0,0,1.3-.239A5.392,5.392,0,0,0,28.64,9.319ZM28.859,7a3.481,3.481,0,0,0-.613-.066H22.735A3.3,3.3,0,0,0,22.125,7V6.28a3.06,3.06,0,0,0,.611.066h5.511a3.481,3.481,0,0,0,.613-.066Z" transform="translate(17.587 5.168)" fill="#1a1818"/>
    <path id="Path_2854" data-name="Path 2854" d="M28.019,10.752a12.629,12.629,0,0,0,4.415-1.879,9.58,9.58,0,0,0,2.811-2.82l.7.6a3.229,3.229,0,0,0-.407.4A13.625,13.625,0,0,1,33.255,9.2v5.117a3.253,3.253,0,0,0,.066.613H32.4a3.026,3.026,0,0,0,.066-.613V9.7a15.186,15.186,0,0,1-3.66,1.475,2.663,2.663,0,0,0-.547.21Z" transform="translate(23.058 4.981)" fill="#1a1818"/>
    <path id="Path_2855" data-name="Path 2855" d="M35.224,7.347a2.724,2.724,0,0,0-.613.077V6.658a2.135,2.135,0,0,0,.613.077h7.259c-.2,4-2.076,6.439-5.706,7.4a3.274,3.274,0,0,0-.558.2l-.3-.689A6.15,6.15,0,0,0,39.816,11.7a7.534,7.534,0,0,0,1.8-4.351Z" transform="translate(28.483 5.479)" fill="#1a1818"/>
    <path id="Path_2856" data-name="Path 2856" d="M7.7,16.393a7.306,7.306,0,0,0,.91-.046,4.988,4.988,0,0,0-.067.964v6.307a4.732,4.732,0,0,0,.067.755,5.457,5.457,0,0,0-.91-.046H1.868a5.961,5.961,0,0,0-.755.046,5.055,5.055,0,0,0,.066-.953V17.189a4.646,4.646,0,0,0-.066-.842,7.165,7.165,0,0,0,.908.046H3.78c.153-.284.383-.766.689-1.466l.1-.361.928.339-.263.328c-.263.438-.514.8-.777,1.159Zm.067.558H1.957V18.83H7.772ZM1.955,21.28H7.77V19.39H1.955Zm0,2.492H7.77V21.836H1.955Z" transform="translate(0.916 11.987)" fill="#1a1818"/>
    <path id="Path_2857" data-name="Path 2857" d="M17.011,23.63a4.429,4.429,0,0,0,.722-.055v.667l-.109-.011a3.757,3.757,0,0,0-.613-.044h-8.7a4.679,4.679,0,0,0-.72.055v-.667a4.743,4.743,0,0,0,.72.055h5.128c.055-.153.1-.25.142-.394a41.3,41.3,0,0,0,1.466-5.126l.066-.5.983.284-.186.427a50.2,50.2,0,0,1-1.792,5.312Zm-4.776-8.263c0-.142-.011-.273-.022-.407l-.035-.217-.011-.1h.919a4.387,4.387,0,0,0-.066.722v1.247h3.706a4.652,4.652,0,0,0,.733-.057v.678a3.927,3.927,0,0,0-.733-.066H8.592a3.765,3.765,0,0,0-.731.066v-.678a4.943,4.943,0,0,0,.731.057h3.642Zm-2.089,2.886c.47,1.365.9,2.765,1.236,4.153l.184.47-.95.264-.066-.516a37.087,37.087,0,0,0-1.017-4.142l-.208-.459L10,17.759Z" transform="translate(6.245 12.052)" fill="#1a1818"/>
    <path id="Path_2858" data-name="Path 2858" d="M23,19.258a8.322,8.322,0,0,1-2.559,3.323,14.179,14.179,0,0,0,3.784,1.192l.567.077-.361.842-.558-.177a13.28,13.28,0,0,1-4.034-1.508l-.055.033a17.788,17.788,0,0,1-4.209,1.672l-.5.153-.219-.6.567-.086a14.4,14.4,0,0,0,3.859-1.586,6.889,6.889,0,0,1-2.3-3.159h-.383c-.151,0-.272.011-.4.022l-.208.033-.108.011V18.82a4.759,4.759,0,0,0,.72.055h2.669V17.116H15.9a4.328,4.328,0,0,0-.718.055V16.5a4.52,4.52,0,0,0,.718.055h3.38v-1.19c0-.144-.013-.275-.022-.407l-.035-.217-.009-.1h.906a3.258,3.258,0,0,0-.077.724v1.19H23.7a4.429,4.429,0,0,0,.722-.055v.667a4.41,4.41,0,0,0-.722-.055H20.04v1.759h1.8A9.994,9.994,0,0,0,23,18.842Zm-5.421.175a6.536,6.536,0,0,0,2.239,2.776,7.722,7.722,0,0,0,2.231-2.776Z" transform="translate(12.23 12.051)" fill="#1a1818"/>
    <path id="Path_2859" data-name="Path 2859" d="M24.217,19.795c.108-.035.162-.057.438-.166l.414-.252.252.5-.459.2c-.153.088-.436.23-.644.328v3.9a.438.438,0,0,1-.439.481,6.227,6.227,0,0,1-1.147-.23l-.381-.055-.057-.514a7.507,7.507,0,0,0,1.061.1c.175,0,.2-.022.2-.175V20.756c-.383.175-.448.2-.744.317l-.47.241-.328-.809.5-.1c.339-.1.689-.208,1.039-.339V17.454h-.669a4.679,4.679,0,0,0-.72.055v-.665a5.006,5.006,0,0,0,.72.053h.669V15.367c0-.142-.011-.273-.022-.407l-.035-.217-.009-.1h.9a4.276,4.276,0,0,0-.066.722V16.9h.448a4.6,4.6,0,0,0,.72-.053v.665l-.12-.011-.153-.022c-.12-.011-.263-.022-.447-.022h-.448Zm7.3,1.322a6.66,6.66,0,0,1-1.726,2.12,6.918,6.918,0,0,0,2,.7l.591.077-.394.788-.5-.175a7.433,7.433,0,0,1-2.273-.984A8.659,8.659,0,0,1,26.8,24.658l-.492.186-.284-.536.58-.109a9.2,9.2,0,0,0,2.1-.963,5.508,5.508,0,0,1-1.247-1.715,8.167,8.167,0,0,1-1.934,2.317l-.352.35-.383-.459.4-.273a6.992,6.992,0,0,0,2.188-3.64H26.239a4.459,4.459,0,0,0-.72.057v-.658a4.549,4.549,0,0,0,.72.057h1.256c.057-.306.111-.669.144-1h-1.3a4.721,4.721,0,0,0-.733.055v-.667a4.912,4.912,0,0,0,.733.055h3.487a12.128,12.128,0,0,0,.95-1.7l.111-.383.808.339-.261.339a15.274,15.274,0,0,1-1.028,1.4h.687a4.436,4.436,0,0,0,.724-.055v.667a4.629,4.629,0,0,0-.724-.055H28.37a7.784,7.784,0,0,1-.14,1h3.212a4.238,4.238,0,0,0,.722-.057v.658l-.118-.013-.153-.022c-.122-.011-.264-.022-.45-.022H28.107a6.175,6.175,0,0,1-.284.919h2.92a5.508,5.508,0,0,0,.775-.044Zm.383-5.686-.569.046a39.175,39.175,0,0,1-5.3.459l-.492.042-.2-.578.569.02a30.041,30.041,0,0,0,5.04-.578l.458-.188Zm-5.334.831a7.594,7.594,0,0,1,.644.788l.242.263-.733.372-.077-.3a3.128,3.128,0,0,0-.481-.851l-.219-.23.481-.286Zm1.869-.142a9.139,9.139,0,0,1,.656.908l.23.273-.766.35-.066-.317a5.154,5.154,0,0,0-.469-.95l-.241-.275.512-.241Zm-.525,5.172a5.125,5.125,0,0,0,1.323,1.562,5.043,5.043,0,0,0,1.334-1.562Z" transform="translate(18.03 12.052)" fill="#1a1818"/>
    <path id="Path_2860" data-name="Path 2860" d="M32.308,17.812a.853.853,0,1,1-.853-.853.869.869,0,0,1,.853.853" transform="translate(25.184 13.957)" fill="#1a1818"/>
    <path id="Path_2861" data-name="Path 2861" d="M39.975,15.348l.02.035a12.994,12.994,0,0,0,4.525,3.693l.438.153-.556.853-.339-.272a13.245,13.245,0,0,1-4.384-3.992A10.773,10.773,0,0,1,35.3,19.887l-.317.283-.439-.589.481-.164a9.939,9.939,0,0,0,4.156-4.351l.108-.416.884.242-.217.425ZM36.1,24.193c1.085-.95,1.367-1.672,1.367-3.529V19.382c0-.14-.013-.272-.024-.4l-.029-.219-.013-.1h.906a4.97,4.97,0,0,0-.064.72v1.282c0,2.12-.417,3-1.838,3.934l-.436.284-.341-.425Zm5.161.536.022-.219a3.013,3.013,0,0,0,.031-.447V19.33c0-.153-.011-.263-.02-.407l-.033-.206-.011-.109h.9a4.791,4.791,0,0,0-.066.722v4.734a4.562,4.562,0,0,0,.066.72h-.9Z" transform="translate(28.424 12.056)" fill="#1a1818"/>
    <path id="Path_2862" data-name="Path 2862" d="M43.3,15.368c0-.144-.013-.275-.024-.407l-.031-.217-.011-.1h.851a4.516,4.516,0,0,0-.066.724v.95h.831a4.63,4.63,0,0,0,.733-.055v.667l-.122-.011-.153-.024c-.118-.009-.272-.02-.458-.02H42.514a4.68,4.68,0,0,0-.72.055v-.667a4.76,4.76,0,0,0,.72.055H43.3ZM44.4,21.063a5.773,5.773,0,0,0,.9-.046,4.533,4.533,0,0,0-.067.908V23.85a4.327,4.327,0,0,0,.067.711,6.088,6.088,0,0,0-.722-.046H42.8a6,6,0,0,0-.755.046,3.809,3.809,0,0,0,.077-.908V21.925a3.924,3.924,0,0,0-.077-.908,7.183,7.183,0,0,0,.908.046Zm.58-.975-.153-.02c-.12-.011-.263-.022-.448-.022H42.921a4.723,4.723,0,0,0-.724.053v-.676a3.685,3.685,0,0,0,.724.066h1.453a3.668,3.668,0,0,0,.722-.066V20.1Zm0-1.584-.153-.02c-.12-.011-.263-.024-.448-.024H42.932a4.707,4.707,0,0,0-.722.055v-.665a4.7,4.7,0,0,0,.722.053h1.442a4.609,4.609,0,0,0,.722-.053v.665Zm-2.12,5.454h1.639V21.619H42.855Zm7.618-5.575a3.723,3.723,0,0,0,.722-.064v.633a4.592,4.592,0,0,0-.722-.055H49.162v.525h1.3a4.624,4.624,0,0,0,.731-.055v.623a3.749,3.749,0,0,0-.731-.066h-1.3v.58h1.65a4.631,4.631,0,0,0,.733-.055v.622l-.12-.009-.153-.022a4.329,4.329,0,0,0-.459-.024H47.031a5.969,5.969,0,0,0-.866.035,3.5,3.5,0,0,0,.077-.953V18.361c-.164.208-.3.372-.47.547l-.184.264-.448-.439.273-.184a7.42,7.42,0,0,0,1.1-1.761l.153-.448.363.208c.011-.088.02-.273.02-.394h-.873a4.486,4.486,0,0,0-.713.055v-.656a4.408,4.408,0,0,0,.713.046h.873v-.23c0-.144-.009-.275-.02-.407L47,14.744l-.011-.1h.864a4.516,4.516,0,0,0-.066.724v.23h1.739v-.23c0-.144-.013-.275-.024-.407l-.031-.217-.011-.1h.853a4.363,4.363,0,0,0-.067.724v.23h.919a3.507,3.507,0,0,0,.711-.046v.656a4.557,4.557,0,0,0-.711-.055h-.919a3.762,3.762,0,0,0,.067.689h-.582l-.219.2-.1.109-.086.088-.088.1h1.475a4.238,4.238,0,0,0,.722-.057V17.9l-.109-.011a3.974,3.974,0,0,0-.613-.042H49.162v.534ZM46.419,22.1a4.932,4.932,0,0,0-.724.044v-.656a4.819,4.819,0,0,0,.724.055h3.606A5.977,5.977,0,0,0,51,21.487V21.9a5.6,5.6,0,0,1-1.728,1.54,9.047,9.047,0,0,0,2.1.47l.656-.013-.372.866-.438-.1a8.974,8.974,0,0,1-2.678-.853,10.27,10.27,0,0,1-2.558.831l-.363.109-.241-.6.383-.024a8.892,8.892,0,0,0,2.166-.687A5.77,5.77,0,0,1,46.592,22.1Zm2.044-4.251H46.931v.534h1.531Zm-1.531,1.573h1.531V18.9H46.931Zm0,1.083h1.531v-.58H46.931Zm.853-4.351a3.892,3.892,0,0,0,.066.689h-.525l-.23.252-.077.129a.779.779,0,0,0-.064.111H48.6a4.931,4.931,0,0,0,.328-.634l.12-.394.447.263c.011-.131.024-.263.024-.416Zm.82,6.931.033-.022a5.531,5.531,0,0,0,1.234-.963h-2.59a4.267,4.267,0,0,0,1.28,1.006Z" transform="translate(34.395 12.051)" fill="#1a1818"/>
    <path id="Path_2863" data-name="Path 2863" d="M1.485,25.919l-.035.458a12.439,12.439,0,0,1-.217,2.6l-.089.5-.788-.206.177-.459a11.92,11.92,0,0,0,.35-2.461l-.022-.468Zm.425,7.815.024-.219a3,3,0,0,0,.031-.447v-8.7c0-.144-.011-.275-.02-.407l-.035-.217-.011-.1h.886a4.516,4.516,0,0,0-.066.724v8.7a4.6,4.6,0,0,0,.066.722H1.9Zm5.565-7.771H9.114a4.238,4.238,0,0,0,.722-.057v.667l-.12-.009-.153-.022a4.1,4.1,0,0,0-.448-.024H7.476v.755H9.814a4.394,4.394,0,0,0,.72-.055v.667l-.118-.011-.153-.022c-.12-.011-.264-.022-.448-.022H3.966V27.9A1.438,1.438,0,0,1,4,28.1l.088.416-.8.12.022-.459a18.374,18.374,0,0,0-.186-1.969l-.088-.394.58-.077.055.383c.077.383.153.811.208,1.148H6.71v-.755H5.06a4.488,4.488,0,0,0-.722.055v-.667a4.406,4.406,0,0,0,.722.057H6.71v-.7H4.677a4.67,4.67,0,0,0-.722.055V24.65a4.781,4.781,0,0,0,.722.055H6.71v-.337c0-.144-.011-.275-.022-.407l-.033-.217-.011-.1h.9a4.516,4.516,0,0,0-.066.724V24.7H9.508a4.594,4.594,0,0,0,.731-.055v.667l-.118-.011-.153-.024c-.122-.009-.273-.02-.459-.02H7.476ZM5.408,33.069a4.6,4.6,0,0,0,.066.722h-.9l.011-.057.02-.219a2.757,2.757,0,0,0,.033-.447V29.363a4.411,4.411,0,0,0-.064-.888,7.117,7.117,0,0,0,.906.046H8.777a5.611,5.611,0,0,0,.9-.046,4.079,4.079,0,0,0-.066.888V33.08c0,.436-.153.623-.514.623a6.371,6.371,0,0,1-1.28-.219L7.3,33.4l-.111-.525a10.8,10.8,0,0,0,1.4.131c.219,0,.264-.046.264-.275v-.95H5.408Zm3.445-4H5.408v.766H8.854ZM5.408,31.22H8.854v-.831H5.408Z" transform="translate(0.294 19.458)" fill="#1a1818"/>
    <path id="Path_2864" data-name="Path 2864" d="M10.62,30.773h1.313a4.069,4.069,0,0,0,.72-.058v.669l-.12-.011-.151-.022c-.122-.011-.264-.022-.448-.022H10.62v1.739a4.563,4.563,0,0,0,.066.72H9.809l.013-.055.022-.217a2.8,2.8,0,0,0,.033-.448V31.329H8.553a4.7,4.7,0,0,0-.731.055v-.669a4.492,4.492,0,0,0,.731.058H9.876V29.7H8.41a4.509,4.509,0,0,0-.722.057v-.678a3.956,3.956,0,0,0,.722.064h.58l-.044-.3c-.044-.175-.087-.3-.129-.439-.035-.088-.088-.25-.133-.357l-.2-.284.536-.232H8.29a4.193,4.193,0,0,0-.72.057v-.667a4.789,4.789,0,0,0,.72.053H9.865V25.689H8.6a4.722,4.722,0,0,0-.733.055v-.678a3.975,3.975,0,0,0,.733.064H9.865v-.762c0-.142-.011-.275-.022-.407l-.035-.217-.009-.1h.875a4.482,4.482,0,0,0-.066.722v.762h1.256a3.8,3.8,0,0,0,.722-.064v.678l-.12-.011-.153-.022c-.12-.011-.263-.022-.448-.022H10.609v1.278h1.562a4.389,4.389,0,0,0,.711-.053v.667a4.006,4.006,0,0,0-.711-.057h-.9l.766.326-.252.354a8.292,8.292,0,0,1-.545.937h.842a3.684,3.684,0,0,0,.709-.064v.678a4.366,4.366,0,0,0-.709-.057H10.62ZM9.047,27.524l.118.3a3.193,3.193,0,0,1,.394.736l.23.283-.722.293h1.652a7.745,7.745,0,0,0,.438-1.214l.066-.4Zm8.351.809a7.477,7.477,0,0,1-1.181,3.434,6.872,6.872,0,0,0,1.378,1.112l.481.188-.547.777-.417-.374a7.544,7.544,0,0,1-1.289-1.138,7.183,7.183,0,0,1-1.158,1.2l-.263.273-.448-.458.348-.221a7.373,7.373,0,0,0,1.117-1.3,7.71,7.71,0,0,1-1.367-3.283h-.164v4.517a4.563,4.563,0,0,0,.066.72h-.9l.011-.055.022-.217a2.8,2.8,0,0,0,.033-.448V25.052a4.556,4.556,0,0,0-.066-.9,7,7,0,0,0,.9.044h2.59a7.688,7.688,0,0,0,.908-.044,3.689,3.689,0,0,0-.077.9v1.7a.4.4,0,0,1-.4.45,9.847,9.847,0,0,1-1.608-.273l-.448-.046-.042-.536a8.687,8.687,0,0,0,1.508.164c.186,0,.241-.042.241-.206v-1.54H13.888v3.232H16.6a5.788,5.788,0,0,0,.8-.042Zm-2.767.217a6.429,6.429,0,0,0,1.148,2.7,7.234,7.234,0,0,0,.82-2.7Z" transform="translate(6.23 19.459)" fill="#1a1818"/>
    <path id="Path_2865" data-name="Path 2865" d="M17.195,24.707a3.533,3.533,0,0,0-.066-.613h.908a2.239,2.239,0,0,0-.077.613v1.715h3.63V24.707a2.312,2.312,0,0,0-.077-.613h.928a1.893,1.893,0,0,0-.088.613v1.715h1.7a3.3,3.3,0,0,0,.613-.066v.733a2.911,2.911,0,0,0-.613-.055h-1.7v1.433c-.053,2.317-1.037,3.476-3.815,4.459a1.461,1.461,0,0,0-.173.089l-.273-.647a4.817,4.817,0,0,0,2.5-1.3,3.368,3.368,0,0,0,1-2.592V27.034h-3.63v1.978a2.085,2.085,0,0,0,.077.613h-.908a3.223,3.223,0,0,0,.066-.613V27.034H15.489a2.821,2.821,0,0,0-.611.055v-.733a3.176,3.176,0,0,0,.611.066h1.706Z" transform="translate(12.244 19.828)" fill="#1a1818"/>
    <path id="Path_2866" data-name="Path 2866" d="M22.2,28.752a12.629,12.629,0,0,0,4.415-1.879,9.58,9.58,0,0,0,2.811-2.82l.7.6a3.229,3.229,0,0,0-.407.4,13.625,13.625,0,0,1-2.284,2.14v5.117a3.253,3.253,0,0,0,.066.613H26.58a3.026,3.026,0,0,0,.066-.613V27.7a15.186,15.186,0,0,1-3.66,1.475,2.663,2.663,0,0,0-.547.21Z" transform="translate(18.268 19.794)" fill="#1a1818"/>
    <path id="Path_2867" data-name="Path 2867" d="M29.3,33.039a3.008,3.008,0,0,0,.055-.611V24.568a2.863,2.863,0,0,0-.055-.611h.908a3.219,3.219,0,0,0-.066.611v2.417a16.546,16.546,0,0,1,4.34,1.956,2.05,2.05,0,0,0,.547.306l-.56.766A12.722,12.722,0,0,0,30.143,27.6v4.833a3.313,3.313,0,0,0,.066.611Z" transform="translate(24.113 19.716)" fill="#1a1818"/>
  </g>
</svg>
