<svg xmlns="http://www.w3.org/2000/svg" xmlns:xlink="http://www.w3.org/1999/xlink" width="40.505" height="38.36" viewBox="0 0 40.505 38.36">
  <defs>
    <filter id="Path_3182" x="0" y="0" width="40.505" height="38.36" filterUnits="userSpaceOnUse">
      <feOffset dy="1" input="SourceAlpha"/>
      <feGaussianBlur stdDeviation="3" result="blur"/>
      <feFlood flood-opacity="0.302"/>
      <feComposite operator="in" in2="blur"/>
      <feComposite in="SourceGraphic"/>
    </filter>
  </defs>
  <g transform="matrix(1, 0, 0, 1, 0, 0)" filter="url(#Path_3182)">
    <path id="Path_3182-2" data-name="Path 3182" d="M4.668.608A5.248,5.248,0,0,0,.629,4.587,5.193,5.193,0,0,0,1.57,8.894H1.549L10.2,18.981a1.049,1.049,0,0,0,1.593,0L20.435,8.894h-.021a5.193,5.193,0,0,0,.941-4.306A5.246,5.246,0,0,0,10.992,5.746,5.253,5.253,0,0,0,4.668.608Z" transform="translate(9.26 8.26)" fill="none" stroke="#fff" stroke-linecap="round" stroke-linejoin="round" stroke-width="1.5"/>
  </g>
</svg>
